<svg width="31" height="31" viewBox="0 0 31 31" fill="none" xmlns="http://www.w3.org/2000/svg">
<g clip-path="url(#clip0_1355_2943)">
<path d="M6.61305 20.442C9.57202 23.9791 13.134 26.764 17.1995 28.7346C18.7473 29.4681 20.8174 30.3384 23.1236 30.4876C23.2666 30.4938 23.4033 30.5 23.5463 30.5C25.0942 30.5 26.3375 29.9654 27.3507 28.8651C27.3569 28.8589 27.3694 28.8465 27.3756 28.834C27.7361 28.3989 28.1464 28.0073 28.5753 27.5908C28.8675 27.311 29.1659 27.0189 29.4518 26.7205C30.7759 25.3404 30.7759 23.5874 29.4394 22.2509L25.7034 18.5149C25.0693 17.856 24.3109 17.5079 23.5152 17.5079C22.7196 17.5079 21.9549 17.856 21.3022 18.5087L19.0768 20.7341C18.8716 20.616 18.6603 20.5104 18.4614 20.4109C18.2127 20.2866 17.9827 20.1685 17.7776 20.0379C15.751 18.7511 13.911 17.0727 12.1518 14.9157C11.2629 13.7905 10.6661 12.8456 10.2496 11.8821C10.8339 11.3537 11.381 10.8005 11.9094 10.2596C12.0958 10.0669 12.2886 9.87422 12.4813 9.68152C13.1526 9.01015 13.5132 8.23311 13.5132 7.44364C13.5132 6.65416 13.1588 5.87712 12.4813 5.20576L10.6288 3.35329C10.4112 3.13572 10.2061 2.92437 9.99473 2.7068C9.58445 2.28409 9.15553 1.84894 8.73281 1.45731C8.09253 0.829465 7.34036 0.5 6.54467 0.5C5.75519 0.5 4.9968 0.829465 4.33165 1.46353L2.00675 3.78844C1.16133 4.63386 0.68267 5.65955 0.583209 6.84687C0.465098 8.33257 0.738617 9.91152 1.44728 11.8199C2.53514 14.7727 4.17625 17.5141 6.61305 20.442ZM2.09999 6.97741C2.17459 6.15064 2.49162 5.46063 3.08839 4.86386L5.40086 2.55139C5.76141 2.20327 6.15926 2.023 6.54467 2.023C6.92386 2.023 7.30928 2.20327 7.66361 2.56382C8.0801 2.94923 8.47173 3.35329 8.89444 3.78222C9.10579 3.99979 9.32337 4.21736 9.54094 4.44115L11.3934 6.29362C11.7788 6.67903 11.9777 7.07066 11.9777 7.45607C11.9777 7.84148 11.7788 8.23311 11.3934 8.61853C11.2007 8.81123 11.008 9.01015 10.8153 9.20286C10.2372 9.78719 9.69635 10.3404 9.09958 10.8688C9.08715 10.8813 9.08093 10.8875 9.0685 10.8999C8.55254 11.4159 8.63335 11.907 8.75768 12.2799C8.7639 12.2986 8.77011 12.311 8.77633 12.3297C9.25499 13.4797 9.92013 14.5738 10.9583 15.8792C12.8232 18.1792 14.7875 19.9633 16.9508 21.3371C17.2181 21.5112 17.5041 21.6479 17.7714 21.7847C18.02 21.909 18.25 22.0271 18.4552 22.1577C18.48 22.1701 18.4987 22.1826 18.5235 22.195C18.7287 22.3007 18.9276 22.3504 19.1265 22.3504C19.6238 22.3504 19.9471 22.0334 20.0527 21.9277L22.3777 19.6028C22.7382 19.2422 23.1298 19.0495 23.5152 19.0495C23.9877 19.0495 24.3731 19.3417 24.6155 19.6028L28.364 23.345C29.1099 24.091 29.1037 24.8991 28.3453 25.6886C28.0842 25.9683 27.8107 26.2356 27.5186 26.5153C27.0834 26.938 26.6296 27.3732 26.2193 27.8643C25.5045 28.6351 24.6528 28.9956 23.5525 28.9956C23.4469 28.9956 23.335 28.9894 23.2293 28.9832C21.1903 28.8527 19.2944 28.057 17.8708 27.3794C14.0043 25.5083 10.6101 22.8539 7.79415 19.4847C5.47546 16.6935 3.91516 14.0951 2.88325 11.3102C2.24297 9.6007 2.00053 8.2269 2.09999 6.97741Z" fill="white"/>
</g>
<defs>
<clipPath id="clip0_1355_2943">
<rect width="30" height="30" fill="white" transform="translate(0.5 0.5)"/>
</clipPath>
</defs>
</svg>
