<svg xmlns="http://www.w3.org/2000/svg" width="70" height="70" viewBox="0 0 70 70" fill="none"><path d="M32.0832 50.3125H14.5832C9.98361 50.3125 8.0207 48.3496 8.0207 43.75V28.4375H56.1457V29.1667C56.1457 29.7469 56.3762 30.3033 56.7864 30.7135C57.1966 31.1237 57.753 31.3542 58.3332 31.3542C58.9134 31.3542 59.4698 31.1237 59.88 30.7135C60.2902 30.3033 60.5207 29.7469 60.5207 29.1667V20.4167C60.692 18.9389 60.5269 17.4416 60.0378 16.0366C59.5487 14.6317 58.7482 13.3555 57.6963 12.3036C56.6444 11.2517 55.3682 10.4512 53.9633 9.9621C52.5583 9.473 51.061 9.30791 49.5832 9.47919H14.5832C13.1054 9.30791 11.6081 9.473 10.2031 9.9621C8.79818 10.4512 7.52201 11.2517 6.47008 12.3036C5.41815 13.3555 4.6177 14.6317 4.1286 16.0366C3.6395 17.4416 3.47442 18.9389 3.6457 20.4167V43.75C3.47442 45.2278 3.6395 46.7251 4.1286 48.1301C4.6177 49.535 5.41815 50.8112 6.47008 51.8631C7.52201 52.9151 8.79818 53.7155 10.2031 54.2046C11.6081 54.6937 13.1054 54.8588 14.5832 54.6875H32.0832C32.6634 54.6875 33.2198 54.4571 33.63 54.0468C34.0402 53.6366 34.2707 53.0802 34.2707 52.5C34.2707 51.9199 34.0402 51.3635 33.63 50.9532C33.2198 50.543 32.6634 50.3125 32.0832 50.3125ZM14.5832 13.8542H49.5832C54.1828 13.8542 56.1457 15.8171 56.1457 20.4167V24.0625H8.0207V20.4167C8.0207 15.8171 9.98361 13.8542 14.5832 13.8542ZM26.2499 38.6459C26.83 38.6459 27.3864 38.8763 27.7967 39.2866C28.2069 39.6968 28.4374 40.2532 28.4374 40.8334C28.4374 41.4135 28.2069 41.9699 27.7967 42.3802C27.3864 42.7904 26.83 43.0209 26.2499 43.0209H17.4999C16.9197 43.0209 16.3633 42.7904 15.9531 42.3802C15.5428 41.9699 15.3124 41.4135 15.3124 40.8334C15.3124 40.2532 15.5428 39.6968 15.9531 39.2866C16.3633 38.8763 16.9197 38.6459 17.4999 38.6459H26.2499ZM51.0415 35.7292C48.5899 35.7292 46.1933 36.4562 44.1548 37.8183C42.1163 39.1803 40.5275 41.1163 39.5893 43.3813C38.6511 45.6464 38.4056 48.1388 38.8839 50.5433C39.3622 52.9479 40.5428 55.1566 42.2764 56.8902C44.0099 58.6238 46.2187 59.8044 48.6232 60.2827C51.0278 60.761 53.5202 60.5155 55.7852 59.5773C58.0503 58.6391 59.9862 57.0503 61.3483 55.0118C62.7104 52.9733 63.4374 50.5767 63.4374 48.125C63.4335 44.8386 62.1263 41.6879 59.8024 39.3641C57.4786 37.0403 54.3279 35.7331 51.0415 35.7292ZM51.0415 40.1042C52.4037 40.1133 53.7406 40.4729 54.9236 41.1484L44.0649 52.0071C43.3894 50.8241 43.0298 49.4872 43.0207 48.125C43.0222 45.9982 43.8678 43.959 45.3717 42.4551C46.8755 40.9513 48.9147 40.1057 51.0415 40.1042ZM51.0415 56.1459C49.6793 56.1367 48.3424 55.7772 47.1594 55.1017L58.0182 44.2429C58.6937 45.4259 59.0532 46.7628 59.0624 48.125C59.0608 50.2518 58.2153 52.291 56.7114 53.7949C55.2075 55.2988 53.1683 56.1443 51.0415 56.1459Z" fill="white"></path></svg>