<svg xmlns="http://www.w3.org/2000/svg" width="23" height="18" viewBox="0 0 23 18" fill="none"><path d="M18.9424 7.06971L19.453 6.21875H19.8927C20.1839 6.21875 20.42 5.98264 20.42 5.69141C20.42 5.40017 20.1839 5.16406 19.8927 5.16406H19.1544C18.9692 5.16406 18.7975 5.26127 18.7022 5.42011L18.2729 6.13568L17.5648 3.65737C17.286 2.68154 16.3824 2 15.3676 2H7.47252C6.45767 2 5.55412 2.68154 5.27529 3.65741L4.56721 6.13571L4.13785 5.42014C4.04254 5.26127 3.87091 5.16406 3.68567 5.16406H2.94739C2.65615 5.16406 2.42004 5.40017 2.42004 5.69141C2.42004 5.98264 2.65615 6.21875 2.94739 6.21875H3.38709L3.89766 7.06971C3.03507 7.3967 2.42004 8.2312 2.42004 9.20703V13.1445C2.42004 13.4358 2.65615 13.6719 2.94739 13.6719H3.86145V14.5508C3.86145 15.2293 4.41344 15.7812 5.09192 15.7812H6.49817C7.17665 15.7812 7.72864 15.2293 7.72864 14.5508V13.6719H15.1115V14.5508C15.1115 15.2293 15.6634 15.7812 16.3419 15.7812H17.7482C18.4266 15.7812 18.9786 15.2293 18.9786 14.5508V13.6719H19.8927C20.1839 13.6719 20.42 13.4358 20.42 13.1445V9.20703C20.42 8.2312 19.805 7.3967 18.9424 7.06971ZM6.28941 3.94713C6.43953 3.42168 6.92606 3.05469 7.47252 3.05469H15.3676C15.914 3.05469 16.4006 3.42168 16.5507 3.94713L17.4006 6.92188H16.4646C16.2197 5.71981 15.1543 4.8125 13.881 4.8125C12.6077 4.8125 11.5423 5.71981 11.2973 6.92188H5.43947L6.28941 3.94713ZM12.3893 6.92188C12.607 6.30801 13.1935 5.86719 13.881 5.86719C14.5685 5.86719 15.155 6.30801 15.3727 6.92188H12.3893ZM6.67395 14.5508C6.67395 14.6477 6.59509 14.7266 6.49817 14.7266H5.09192C4.99499 14.7266 4.91614 14.6477 4.91614 14.5508V13.6719H6.67395V14.5508ZM9.83801 12.6172V11.1406H13.0021V12.6172H9.83801ZM17.924 14.5508C17.924 14.6477 17.8451 14.7266 17.7482 14.7266H16.3419C16.245 14.7266 16.1661 14.6477 16.1661 14.5508V13.6719H17.924V14.5508ZM19.3654 12.6172H14.0568V10.6133C14.0568 10.322 13.8207 10.0859 13.5294 10.0859H9.31067C9.01943 10.0859 8.78333 10.322 8.78333 10.6133V12.6172H3.47473V9.20703C3.47473 8.52855 4.02672 7.97656 4.7052 7.97656H4.73814C4.73906 7.97656 4.73993 7.97663 4.74085 7.97663C4.74173 7.97663 4.74257 7.97656 4.74345 7.97656H18.0966C18.0975 7.97656 18.0984 7.97663 18.0992 7.97663C18.1002 7.97663 18.101 7.97656 18.1019 7.97656H18.1349C18.8134 7.97656 19.3654 8.52855 19.3654 9.20703V12.6172Z" fill="#444444"></path><path d="M16.6935 8.71484C15.8211 8.71484 15.1115 9.42454 15.1115 10.2969C15.1115 11.1692 15.8211 11.8789 16.6935 11.8789C17.5658 11.8789 18.2755 11.1692 18.2755 10.2969C18.2755 9.42454 17.5658 8.71484 16.6935 8.71484ZM16.6935 10.8242C16.4027 10.8242 16.1661 10.5877 16.1661 10.2969C16.1661 10.0061 16.4027 9.76953 16.6935 9.76953C16.9843 9.76953 17.2208 10.0061 17.2208 10.2969C17.2208 10.5877 16.9843 10.8242 16.6935 10.8242Z" fill="#444444"></path><path d="M6.14661 8.71484C5.27427 8.71484 4.56458 9.42454 4.56458 10.2969C4.56458 11.1692 5.27427 11.8789 6.14661 11.8789C7.01894 11.8789 7.72864 11.1692 7.72864 10.2969C7.72864 9.42454 7.01894 8.71484 6.14661 8.71484ZM6.14661 10.8242C5.85583 10.8242 5.61926 10.5877 5.61926 10.2969C5.61926 10.0061 5.85583 9.76953 6.14661 9.76953C6.43738 9.76953 6.67395 10.0061 6.67395 10.2969C6.67395 10.5877 6.43738 10.8242 6.14661 10.8242Z" fill="#444444"></path></svg>