<svg xmlns="http://www.w3.org/2000/svg" width="19" height="18" viewBox="0 0 19 18" fill="none"><path fill-rule="evenodd" clip-rule="evenodd" d="M9.52719 6.00002C7.87177 6.00002 6.52979 7.34316 6.52979 9.00002C6.52979 10.6569 7.87177 12 9.52719 12C11.1826 12 12.5246 10.6569 12.5246 9.00002C12.5246 7.34316 11.1826 6.00002 9.52719 6.00002ZM8.02849 9.00002C8.02849 8.17159 8.69948 7.50002 9.52719 7.50002C10.3549 7.50002 11.0259 8.17159 11.0259 9.00002C11.0259 9.82844 10.3549 10.5 9.52719 10.5C8.69948 10.5 8.02849 9.82844 8.02849 9.00002Z" fill="#444444"></path><path fill-rule="evenodd" clip-rule="evenodd" d="M9.52719 6.00002C7.87177 6.00002 6.52979 7.34316 6.52979 9.00002C6.52979 10.6569 7.87177 12 9.52719 12C11.1826 12 12.5246 10.6569 12.5246 9.00002C12.5246 7.34316 11.1826 6.00002 9.52719 6.00002ZM8.02849 9.00002C8.02849 8.17159 8.69948 7.50002 9.52719 7.50002C10.3549 7.50002 11.0259 8.17159 11.0259 9.00002C11.0259 9.82844 10.3549 10.5 9.52719 10.5C8.69948 10.5 8.02849 9.82844 8.02849 9.00002Z" fill="#444444"></path><path fill-rule="evenodd" clip-rule="evenodd" d="M8.60346 0.76282C8.77225 0.749872 8.96171 0.749947 9.11622 0.750009L9.93818 0.750009C10.0927 0.749947 10.2821 0.749872 10.4509 0.76282C10.6504 0.778119 10.9268 0.817017 11.2233 0.952025C11.598 1.12267 11.9188 1.39302 12.1505 1.7336C12.3338 2.00306 12.4191 2.26912 12.4681 2.46322C12.5095 2.62751 12.5417 2.81437 12.5679 2.96677L12.674 3.58226L12.676 3.58341C12.7021 3.59784 12.7281 3.61245 12.7539 3.62722L12.7558 3.62831L13.4579 3.37399C13.6003 3.32233 13.7755 3.25882 13.936 3.21407C14.1261 3.1611 14.3945 3.10417 14.7139 3.12769C15.1184 3.15748 15.5073 3.29623 15.8394 3.52923C16.1016 3.71321 16.2735 3.92727 16.3872 4.08862C16.4833 4.22494 16.5788 4.38503 16.6565 4.51522L17.0326 5.14503C17.1148 5.28259 17.2151 5.45034 17.2925 5.60645C17.3836 5.79023 17.4949 6.05606 17.5285 6.39051C17.5709 6.81167 17.4936 7.23623 17.3057 7.61543C17.1564 7.91656 16.9586 8.12604 16.8086 8.26587C16.6812 8.38463 16.5283 8.50627 16.4029 8.60599L15.8967 9.00002L16.4029 9.39408C16.5283 9.4938 16.6812 9.6154 16.8086 9.73416C16.9586 9.87399 17.1564 10.0835 17.3056 10.3846C17.4936 10.7638 17.5708 11.1884 17.5285 11.6095C17.4949 11.944 17.3836 12.2098 17.2924 12.3936C17.215 12.5497 17.1148 12.7174 17.0326 12.855L16.6564 13.4849C16.5787 13.6151 16.4833 13.7751 16.3872 13.9114C16.2735 14.0728 16.1016 14.2868 15.8393 14.4708C15.5072 14.7038 15.1184 14.8426 14.7139 14.8723C14.3945 14.8959 14.126 14.8389 13.936 14.786C13.7754 14.7412 13.6003 14.6777 13.4578 14.626L12.7558 14.3717L12.7539 14.3728C12.7281 14.3876 12.7021 14.4022 12.676 14.4166L12.674 14.4178L12.5679 15.0333C12.5417 15.1857 12.5095 15.3725 12.4681 15.5368C12.4191 15.7309 12.3338 15.997 12.1505 16.2664C11.9188 16.607 11.598 16.8774 11.2233 17.048C10.9268 17.183 10.6504 17.2219 10.4509 17.2372C10.2821 17.2502 10.0927 17.2501 9.93816 17.25H9.11623C8.96172 17.2501 8.77226 17.2502 8.60346 17.2372C8.40402 17.2219 8.12756 17.183 7.83108 17.048C7.45635 16.8774 7.13564 16.607 6.90392 16.2664C6.72058 15.997 6.63528 15.7309 6.58631 15.5368C6.54486 15.3725 6.51273 15.1856 6.48652 15.0332L6.38043 14.4178L6.37835 14.4166C6.35227 14.4022 6.32631 14.3876 6.30046 14.3728L6.29856 14.3717L5.59653 14.626C5.4541 14.6777 5.27896 14.7412 5.11839 14.786C4.92834 14.8389 4.65988 14.8959 4.3405 14.8723C3.93603 14.8425 3.54715 14.7038 3.21506 14.4708C2.95283 14.2868 2.78089 14.0728 2.66717 13.9114C2.5711 13.7751 2.4756 13.615 2.39794 13.4848L2.02183 12.855C1.93961 12.7174 1.83935 12.5497 1.76194 12.3936C1.67081 12.2098 1.55948 11.944 1.52588 11.6095C1.48357 11.1884 1.56082 10.7638 1.74875 10.3846C1.89799 10.0835 2.0958 9.87398 2.24581 9.73415C2.37322 9.61539 2.52613 9.49378 2.65152 9.39406L3.14155 9.00402V8.99603L2.65149 8.60597C2.5261 8.50625 2.37319 8.38465 2.24578 8.26588C2.09576 8.12605 1.89796 7.91657 1.74872 7.61544C1.56078 7.23624 1.48354 6.81168 1.52585 6.39052C1.55945 6.05607 1.67078 5.79024 1.76191 5.60646C1.83932 5.45036 1.93958 5.2826 2.0218 5.14504L2.3979 4.5152C2.47557 4.38502 2.57107 4.22494 2.66714 4.08863C2.78086 3.92728 2.9528 3.71322 3.21503 3.52924C3.54712 3.29624 3.936 3.15749 4.34046 3.1277C4.65985 3.10418 4.92831 3.16111 5.11836 3.21408C5.27892 3.25883 5.45405 3.32235 5.59648 3.374L6.29855 3.62831L6.30044 3.62723C6.3263 3.61245 6.35227 3.59784 6.37835 3.58341L6.38043 3.58226L6.48652 2.96678C6.51273 2.81437 6.54486 2.62751 6.58631 2.46322C6.63528 2.26912 6.72058 2.00306 6.90392 1.7336C7.13564 1.39302 7.45635 1.12267 7.83108 0.952025C8.12756 0.817017 8.40402 0.778119 8.60346 0.76282ZM11.0962 3.25222C11.0342 2.89226 11.0031 2.71227 10.9117 2.57788C10.8345 2.46435 10.7276 2.37423 10.6027 2.31735C10.4548 2.25002 10.2723 2.25002 9.90733 2.25002H9.14706C8.78209 2.25002 8.59961 2.25002 8.45174 2.31735C8.32683 2.37423 8.21992 2.46435 8.14268 2.57788C8.05124 2.71227 8.02022 2.89226 7.95817 3.25222L7.84125 3.93048C7.79953 4.1725 7.77867 4.2935 7.73449 4.38652C7.6911 4.47785 7.65562 4.52777 7.58365 4.59874C7.51034 4.67103 7.37471 4.74608 7.10345 4.89617C7.08345 4.90723 7.06353 4.91843 7.04371 4.92976C6.78424 5.07808 6.6545 5.15224 6.55816 5.17735C6.46353 5.20201 6.40459 5.20709 6.30715 5.19897C6.20793 5.1907 6.09679 5.15044 5.87449 5.06992L5.11497 4.79481C4.77834 4.67287 4.61002 4.6119 4.45046 4.62366C4.31563 4.63359 4.18601 4.67983 4.07531 4.7575C3.9443 4.84942 3.85247 5.0032 3.66881 5.31077L3.32458 5.88724C3.13069 6.21195 3.03374 6.3743 3.01703 6.54058C3.00293 6.68097 3.02868 6.82249 3.09132 6.94889C3.16552 7.0986 3.31342 7.21633 3.60923 7.45178L4.15244 7.88414C4.34114 8.03434 4.43549 8.10943 4.49464 8.18996C4.55857 8.27699 4.58584 8.33357 4.61411 8.43782C4.64026 8.53428 4.64026 8.68953 4.64026 9.00002C4.64026 9.31053 4.64026 9.46578 4.6141 9.56225C4.58584 9.6665 4.55857 9.72306 4.49465 9.81009C4.43549 9.89062 4.34113 9.96572 4.15242 10.1159L3.60927 10.5483C3.31346 10.7837 3.16555 10.9014 3.09136 11.0511C3.02871 11.1775 3.00296 11.3191 3.01707 11.4595C3.03377 11.6257 3.13072 11.7881 3.32461 12.1128L3.66884 12.6893C3.85251 12.9968 3.94434 13.1506 4.07535 13.2425C4.18604 13.3202 4.31567 13.3664 4.45049 13.3764C4.61005 13.3881 4.77837 13.3272 5.11501 13.2052L5.8745 12.9301C6.09679 12.8496 6.20795 12.8093 6.30716 12.8011C6.4046 12.793 6.46354 12.798 6.55817 12.8227C6.65451 12.8478 6.78425 12.922 7.04371 13.0703C7.06354 13.0816 7.08345 13.0928 7.10345 13.1039C7.37471 13.254 7.51034 13.329 7.58365 13.4013C7.65562 13.4723 7.6911 13.5222 7.73449 13.6135C7.77867 13.7065 7.79953 13.8275 7.84125 14.0695L7.95817 14.7478C8.02022 15.1078 8.05124 15.2878 8.14268 15.4222C8.21992 15.5357 8.32683 15.6258 8.45174 15.6827C8.59961 15.75 8.78209 15.75 9.14706 15.75H9.90733C10.2723 15.75 10.4548 15.75 10.6027 15.6827C10.7276 15.6258 10.8345 15.5357 10.9117 15.4222C11.0031 15.2878 11.0342 15.1078 11.0962 14.7478L11.2131 14.0695C11.2549 13.8275 11.2757 13.7065 11.3199 13.6135C11.3633 13.5222 11.3988 13.4723 11.4707 13.4013C11.544 13.329 11.6797 13.254 11.9509 13.1039C11.9709 13.0928 11.9908 13.0816 12.0107 13.0703C12.2701 12.922 12.3999 12.8478 12.4962 12.8227C12.5908 12.798 12.6498 12.793 12.7472 12.8011C12.8464 12.8093 12.9576 12.8496 13.1799 12.9301L13.9394 13.2052C14.276 13.3272 14.4443 13.3881 14.6039 13.3764C14.7387 13.3665 14.8683 13.3202 14.979 13.2425C15.1101 13.1506 15.2019 12.9968 15.3855 12.6893L15.7298 12.1128C15.9237 11.7881 16.0206 11.6257 16.0373 11.4595C16.0514 11.3191 16.0257 11.1776 15.963 11.0512C15.8888 10.9014 15.7409 10.7837 15.4451 10.5483L14.902 10.1159C14.7133 9.96573 14.6189 9.89063 14.5597 9.81009C14.4958 9.72307 14.4686 9.66651 14.4403 9.56226C14.4141 9.4658 14.4141 9.31054 14.4141 9.00002C14.4141 8.68952 14.4141 8.53427 14.4403 8.43781C14.4685 8.33356 14.4958 8.27699 14.5597 8.18995C14.6189 8.10943 14.7133 8.03433 14.902 7.88413L15.4451 7.45177C15.741 7.21632 15.8889 7.09859 15.9631 6.94888C16.0257 6.82248 16.0515 6.68096 16.0374 6.54057C16.0207 6.37429 15.9237 6.21194 15.7298 5.88723L15.3856 5.31076C15.2019 5.00319 15.1101 4.84941 14.9791 4.75749C14.8684 4.67982 14.7388 4.63358 14.6039 4.62365C14.4444 4.61189 14.2761 4.67286 13.9394 4.7948L13.1799 5.06992C12.9576 5.15044 12.8464 5.1907 12.7472 5.19896C12.6498 5.20708 12.5908 5.20201 12.4962 5.17735C12.3999 5.15224 12.2701 5.07808 12.0107 4.92976C11.9908 4.91843 11.9709 4.90723 11.9509 4.89617C11.6797 4.74608 11.544 4.67103 11.4707 4.59874C11.3988 4.52777 11.3633 4.47785 11.3199 4.38652C11.2757 4.2935 11.2549 4.17249 11.2131 3.93048L11.0962 3.25222Z" fill="#444444"></path></svg>