<svg xmlns="http://www.w3.org/2000/svg" width="20" height="20" viewBox="0 0 20 20" fill="none"><path fill-rule="evenodd" clip-rule="evenodd" d="M9.75017 6.50587C7.95518 6.50587 6.50006 7.96226 6.50006 9.7588C6.50006 11.5553 7.95518 13.0117 9.75017 13.0117C11.5452 13.0117 13.0003 11.5553 13.0003 9.7588C13.0003 7.96226 11.5452 6.50587 9.75017 6.50587ZM8.12512 9.7588C8.12512 8.86053 8.85268 8.13234 9.75017 8.13234C10.6477 8.13234 11.3752 8.86053 11.3752 9.7588C11.3752 10.6571 10.6477 11.3853 9.75017 11.3853C8.85268 11.3853 8.12512 10.6571 8.12512 9.7588Z" fill="#1EB0FC"></path><path fill-rule="evenodd" clip-rule="evenodd" d="M9.75017 6.50587C7.95518 6.50587 6.50006 7.96226 6.50006 9.7588C6.50006 11.5553 7.95518 13.0117 9.75017 13.0117C11.5452 13.0117 13.0003 11.5553 13.0003 9.7588C13.0003 7.96226 11.5452 6.50587 9.75017 6.50587ZM8.12512 9.7588C8.12512 8.86053 8.85268 8.13234 9.75017 8.13234C10.6477 8.13234 11.3752 8.86053 11.3752 9.7588C11.3752 10.6571 10.6477 11.3853 9.75017 11.3853C8.85268 11.3853 8.12512 10.6571 8.12512 9.7588Z" fill="#1EB0FC"></path><path fill-rule="evenodd" clip-rule="evenodd" d="M8.74856 0.827133C8.93158 0.813094 9.13701 0.813175 9.30455 0.813242L10.1958 0.813242C10.3633 0.813175 10.5688 0.813094 10.7518 0.827133C10.968 0.843722 11.2678 0.8859 11.5893 1.03229C11.9956 1.21732 12.3434 1.51047 12.5946 1.87976C12.7934 2.17194 12.8859 2.46043 12.939 2.6709C12.9839 2.84903 13.0188 3.05165 13.0472 3.2169L13.1622 3.88428L13.1645 3.88553C13.1928 3.90117 13.2209 3.91701 13.249 3.93303L13.251 3.93421L14.0123 3.65845C14.1667 3.60244 14.3566 3.53357 14.5307 3.48505C14.7368 3.42761 15.0279 3.36588 15.3742 3.39139C15.8128 3.42369 16.2344 3.57413 16.5945 3.82677C16.8788 4.02627 17.0653 4.25838 17.1886 4.43333C17.2928 4.58114 17.3963 4.75473 17.4805 4.89589L17.8883 5.5788C17.9775 5.72796 18.0862 5.90986 18.1701 6.07913C18.269 6.2784 18.3897 6.56664 18.4261 6.92928C18.472 7.38595 18.3882 7.84631 18.1844 8.25748C18.0226 8.58399 17.8081 8.81114 17.6455 8.96276C17.5073 9.09153 17.3415 9.22342 17.2055 9.33155L16.6567 9.7588L17.2055 10.1861C17.3415 10.2942 17.5073 10.4261 17.6454 10.5548C17.8081 10.7065 18.0226 10.9336 18.1844 11.2601C18.3882 11.6713 18.4719 12.1316 18.4261 12.5883C18.3896 12.951 18.2689 13.2392 18.1701 13.4385C18.0862 13.6077 17.9775 13.7896 17.8883 13.9388L17.4804 14.6218C17.3962 14.763 17.2927 14.9365 17.1886 15.0843C17.0652 15.2592 16.8788 15.4913 16.5945 15.6908C16.2344 15.9435 15.8127 16.0939 15.3742 16.1262C15.0278 16.1517 14.7368 16.09 14.5307 16.0326C14.3566 15.984 14.1667 15.9152 14.0122 15.8591L13.251 15.5834L13.2489 15.5846C13.2209 15.6006 13.1928 15.6164 13.1645 15.6321L13.1622 15.6333L13.0472 16.3007C13.0188 16.4659 12.9839 16.6686 12.939 16.8467C12.8859 17.0572 12.7934 17.3457 12.5946 17.6378C12.3434 18.0071 11.9956 18.3003 11.5893 18.4853C11.2678 18.6317 10.968 18.6739 10.7518 18.6905C10.5688 18.7045 10.3633 18.7044 10.1958 18.7044H9.30456C9.13702 18.7044 8.93159 18.7045 8.74856 18.6905C8.53231 18.6739 8.23254 18.6317 7.91106 18.4853C7.50474 18.3003 7.15699 18.0071 6.90573 17.6378C6.70694 17.3457 6.61445 17.0572 6.56135 16.8467C6.51641 16.6686 6.48156 16.4659 6.45314 16.3007L6.33811 15.6333L6.33586 15.6321C6.30758 15.6164 6.27942 15.6006 6.25139 15.5846L6.24934 15.5834L5.48812 15.8591C5.33368 15.9151 5.14377 15.984 4.96967 16.0325C4.76359 16.09 4.4725 16.1517 4.12619 16.1262C3.68763 16.0939 3.26596 15.9435 2.90587 15.6908C2.62154 15.4913 2.4351 15.2592 2.31179 15.0843C2.20762 14.9365 2.10407 14.7629 2.01986 14.6217L1.61204 13.9388C1.52289 13.7896 1.41418 13.6077 1.33024 13.4385C1.23142 13.2392 1.11071 12.951 1.07428 12.5883C1.0284 12.1316 1.11216 11.6713 1.31594 11.2601C1.47776 10.9336 1.69224 10.7064 1.8549 10.5548C1.99306 10.4261 2.15886 10.2942 2.29482 10.1861L2.82617 9.76315V9.75448L2.29478 9.33154C2.15882 9.22341 1.99303 9.09155 1.85487 8.96277C1.69221 8.81115 1.47772 8.584 1.3159 8.25749C1.11212 7.84633 1.02836 7.38596 1.07424 6.92929C1.11067 6.56665 1.23139 6.27841 1.3302 6.07914C1.41414 5.90988 1.52286 5.72797 1.61201 5.57881L2.01982 4.89587C2.10403 4.75471 2.20758 4.58114 2.31175 4.43334C2.43506 4.25839 2.6215 4.02628 2.90584 3.82678C3.26593 3.57414 3.68759 3.4237 4.12616 3.3914C4.47246 3.36589 4.76356 3.42762 4.96963 3.48506C5.14373 3.53358 5.33363 3.60245 5.48807 3.65846L6.24932 3.93421L6.25138 3.93304C6.27941 3.91701 6.30757 3.90117 6.33586 3.88553L6.33811 3.88428L6.45314 3.21691C6.48156 3.05165 6.5164 2.84903 6.56135 2.6709C6.61445 2.46043 6.70694 2.17194 6.90573 1.87976C7.15699 1.51047 7.50474 1.21732 7.91106 1.03229C8.23254 0.8859 8.53231 0.843722 8.74856 0.827133ZM11.4515 3.52641C11.3842 3.1361 11.3506 2.94094 11.2514 2.79522C11.1677 2.67212 11.0517 2.5744 10.9163 2.51273C10.756 2.43971 10.5581 2.43971 10.1624 2.43971H9.33799C8.94225 2.43971 8.74438 2.43971 8.58405 2.51273C8.44861 2.5744 8.33269 2.67212 8.24893 2.79522C8.14979 2.94094 8.11615 3.1361 8.04886 3.52641L7.92209 4.26186C7.87685 4.52428 7.85424 4.65548 7.80632 4.75634C7.75928 4.85538 7.72081 4.9095 7.64277 4.98646C7.56328 5.06484 7.41621 5.14622 7.12208 5.30896C7.1004 5.32096 7.07881 5.3331 7.05731 5.34539C6.77596 5.50621 6.63529 5.58662 6.53082 5.61385C6.42822 5.64059 6.36431 5.64609 6.25865 5.63729C6.15107 5.62833 6.03055 5.58467 5.78952 5.49736L4.96596 5.19906C4.60094 5.06684 4.41844 5.00073 4.24542 5.01347C4.09923 5.02424 3.95868 5.07439 3.83865 5.1586C3.69659 5.25827 3.59702 5.42502 3.39788 5.75852L3.02462 6.38359C2.81438 6.73567 2.70926 6.91172 2.69115 7.09201C2.67585 7.24424 2.70377 7.39769 2.7717 7.53475C2.85215 7.69708 3.01253 7.82473 3.33328 8.08003L3.92228 8.54885C4.12688 8.7117 4.22919 8.79313 4.29333 8.88045C4.36265 8.97482 4.39222 9.03616 4.42287 9.14921C4.45122 9.2538 4.45122 9.42213 4.45122 9.7588C4.45122 10.0955 4.45122 10.2638 4.42287 10.3684C4.39222 10.4815 4.36265 10.5428 4.29334 10.6372C4.22919 10.7245 4.12688 10.8059 3.92226 10.9688L3.33332 11.4376C3.01257 11.6929 2.85219 11.8205 2.77174 11.9829C2.70381 12.1199 2.67589 12.2734 2.69118 12.4256C2.7093 12.6059 2.81442 12.7819 3.02466 13.134L3.39791 13.7591C3.59706 14.0926 3.69663 14.2593 3.83869 14.359C3.95871 14.4432 4.09927 14.4934 4.24546 14.5041C4.41847 14.5169 4.60098 14.4508 4.966 14.3185L5.78953 14.0202C6.03055 13.9329 6.15108 13.8893 6.25866 13.8803C6.36432 13.8715 6.42823 13.877 6.53083 13.9038C6.6353 13.931 6.77597 14.0114 7.05731 14.1722C7.07881 14.1845 7.1004 14.1966 7.12208 14.2086C7.41621 14.3714 7.56328 14.4528 7.64277 14.5311C7.72081 14.6081 7.75928 14.6622 7.80632 14.7613C7.85424 14.8621 7.87685 14.9933 7.92209 15.2557L8.04886 15.9912C8.11615 16.3815 8.14979 16.5767 8.24893 16.7224C8.33269 16.8455 8.44861 16.9432 8.58405 17.0049C8.74438 17.0779 8.94225 17.0779 9.33799 17.0779H10.1624C10.5581 17.0779 10.756 17.0779 10.9163 17.0049C11.0517 16.9432 11.1677 16.8455 11.2514 16.7224C11.3506 16.5767 11.3842 16.3815 11.4515 15.9912L11.5783 15.2557C11.6235 14.9933 11.6461 14.8621 11.694 14.7613C11.7411 14.6622 11.7795 14.6081 11.8576 14.5311C11.9371 14.4528 12.0841 14.3714 12.3783 14.2086C12.3999 14.1966 12.4215 14.1845 12.443 14.1722C12.7243 14.0114 12.865 13.931 12.9695 13.9038C13.0721 13.877 13.136 13.8715 13.2417 13.8803C13.3493 13.8893 13.4698 13.9329 13.7108 14.0203L14.5343 14.3186C14.8994 14.4508 15.0819 14.5169 15.2549 14.5041C15.4011 14.4934 15.5416 14.4432 15.6617 14.359C15.8037 14.2593 15.9033 14.0926 16.1024 13.7591L16.4757 13.134C16.6859 12.7819 16.7911 12.6059 16.8092 12.4256C16.8245 12.2734 16.7965 12.1199 16.7286 11.9829C16.6482 11.8205 16.4878 11.6929 16.167 11.4376L15.5781 10.9688C15.3735 10.8059 15.2712 10.7245 15.207 10.6372C15.1377 10.5428 15.1081 10.4815 15.0775 10.3684C15.0491 10.2638 15.0491 10.0955 15.0491 9.7588C15.0491 9.42212 15.0491 9.25379 15.0775 9.14919C15.1081 9.03615 15.1377 8.97481 15.207 8.88044C15.2712 8.79312 15.3735 8.71169 15.5781 8.54883L16.1671 8.08003C16.4878 7.82472 16.6482 7.69707 16.7286 7.53474C16.7966 7.39768 16.8245 7.24423 16.8092 7.092C16.7911 6.91171 16.686 6.73566 16.4757 6.38358L16.1025 5.75851C15.9033 5.42501 15.8038 5.25826 15.6617 5.15859C15.5417 5.07438 15.4011 5.02423 15.2549 5.01346C15.0819 5.00072 14.8994 5.06683 14.5344 5.19904L13.7108 5.49736C13.4698 5.58466 13.3493 5.62832 13.2417 5.63728C13.136 5.64609 13.0721 5.64058 12.9695 5.61384C12.865 5.58662 12.7244 5.50621 12.443 5.34539C12.4215 5.3331 12.3999 5.32096 12.3783 5.30896C12.0841 5.14622 11.9371 5.06484 11.8576 4.98646C11.7795 4.9095 11.7411 4.85538 11.694 4.75634C11.6461 4.65548 11.6235 4.52427 11.5783 4.26186L11.4515 3.52641Z" fill="#1EB0FC"></path></svg>