<svg xmlns="http://www.w3.org/2000/svg" width="18" height="19" viewBox="0 0 18 19" fill="none"><path d="M3.4758 12.3979C5.17402 14.428 7.21832 16.0263 9.55159 17.1573C10.4399 17.5783 11.628 18.0777 12.9516 18.1634C13.0337 18.1669 13.1122 18.1705 13.1942 18.1705C14.0826 18.1705 14.7961 17.8637 15.3776 17.2322C15.3812 17.2286 15.3884 17.2215 15.3919 17.2143C15.5988 16.9646 15.8343 16.7398 16.0805 16.5008C16.2482 16.3403 16.4194 16.1726 16.5835 16.0013C17.3435 15.2093 17.3435 14.2032 16.5764 13.4361L14.4322 11.292C14.0683 10.9138 13.633 10.714 13.1764 10.714C12.7197 10.714 12.2809 10.9138 11.9063 11.2884L10.629 12.5656C10.5113 12.4978 10.39 12.4372 10.2758 12.3801C10.1331 12.3088 10.0011 12.241 9.88339 12.166C8.72032 11.4275 7.66428 10.4643 6.65462 9.22626C6.14444 8.58051 5.80194 8.03822 5.5629 7.48522C5.89827 7.18197 6.21222 6.86444 6.51548 6.55405C6.62251 6.44345 6.73311 6.33285 6.84371 6.22225C7.22902 5.83694 7.43595 5.39098 7.43595 4.93788C7.43595 4.48478 7.23259 4.03882 6.84371 3.65351L5.78053 2.59033C5.65566 2.46546 5.53793 2.34416 5.41663 2.21929C5.18116 1.97669 4.93499 1.72695 4.69238 1.50218C4.32491 1.14185 3.89322 0.952759 3.43655 0.952759C2.98345 0.952759 2.54819 1.14185 2.16645 1.50575L0.83213 2.84007C0.346922 3.32528 0.0722092 3.91395 0.015126 4.59538C-0.0526604 5.44806 0.104319 6.35426 0.511037 7.44954C1.13538 9.1442 2.07726 10.7176 3.4758 12.3979ZM0.885645 4.6703C0.928458 4.1958 1.11041 3.79978 1.45291 3.45729L2.78009 2.1301C2.98702 1.93031 3.21535 1.82685 3.43655 1.82685C3.65418 1.82685 3.87538 1.93031 4.07874 2.13724C4.31777 2.35843 4.54254 2.59033 4.78514 2.83651C4.90645 2.96137 5.03131 3.08624 5.15618 3.21468L6.21936 4.27786C6.44056 4.49905 6.55472 4.72382 6.55472 4.94502C6.55472 5.16621 6.44056 5.39098 6.21936 5.61218C6.10876 5.72278 5.99816 5.83694 5.88756 5.94754C5.55577 6.28291 5.24538 6.60043 4.90288 6.90369C4.89574 6.91082 4.89217 6.91439 4.88504 6.92152C4.58892 7.21764 4.6353 7.49949 4.70665 7.71355C4.71022 7.72426 4.71379 7.73139 4.71736 7.7421C4.99207 8.40212 5.37381 9.03004 5.96962 9.77925C7.03993 11.0993 8.16732 12.1232 9.40888 12.9117C9.56229 13.0116 9.72641 13.0901 9.87982 13.1686C10.0225 13.2399 10.1545 13.3077 10.2723 13.3826C10.2865 13.3898 10.2972 13.3969 10.3115 13.404C10.4292 13.4647 10.5434 13.4932 10.6576 13.4932C10.943 13.4932 11.1285 13.3113 11.1892 13.2506L12.5235 11.9163C12.7304 11.7094 12.9552 11.5988 13.1764 11.5988C13.4475 11.5988 13.6687 11.7665 13.8079 11.9163L15.9592 14.0641C16.3873 14.4922 16.3837 14.956 15.9485 15.4091C15.7986 15.5696 15.6417 15.723 15.474 15.8836C15.2242 16.1262 14.9638 16.3759 14.7283 16.6578C14.318 17.1002 13.8293 17.3071 13.1978 17.3071C13.1371 17.3071 13.0729 17.3035 13.0123 17.3C11.8421 17.225 10.7539 16.7684 9.9369 16.3795C7.71779 15.3056 5.76983 13.7822 4.15366 11.8485C2.82291 10.2466 1.92741 8.75532 1.33518 7.15699C0.967702 6.17587 0.828562 5.38741 0.885645 4.6703Z" fill="#1EB0FC"></path></svg>