<svg xmlns="http://www.w3.org/2000/svg" width="19" height="16" viewBox="0 0 19 16" fill="none"><path d="M1.74544 15.9244C1.44434 15.9228 1.15602 15.8025 0.943108 15.5895C0.730194 15.3766 0.609874 15.0883 0.608276 14.7872V5.43451C0.609882 4.81085 0.858342 4.21319 1.29934 3.77219C1.74033 3.3312 2.33799 3.08274 2.96165 3.08113H14.0596C14.6843 3.08113 15.2836 3.32888 15.7259 3.77005C16.1682 4.21122 16.4175 4.8098 16.4191 5.43451V11.6676C16.4191 12.2923 16.1713 12.8916 15.7302 13.3339C15.289 13.7762 14.6904 14.0255 14.0657 14.0271H4.8103C4.70518 14.0279 4.60302 14.062 4.51841 14.1244L2.4326 15.6994C2.23372 15.8463 1.99273 15.9253 1.74544 15.9244ZM2.96165 4.29735C2.66055 4.29894 2.37224 4.41927 2.15932 4.63218C1.94641 4.84509 1.82609 5.13341 1.82449 5.43451V14.6352L3.78868 13.1514C4.08422 12.9319 4.44217 12.8126 4.8103 12.8109H14.0596C14.3628 12.8109 14.6536 12.6904 14.868 12.476C15.0824 12.2616 15.2029 11.9708 15.2029 11.6676V5.43451C15.2013 5.13341 15.081 4.84509 14.868 4.63218C14.6551 4.41927 14.3668 4.29894 14.0657 4.29735H2.96165Z" fill="white"></path><path d="M10.9096 9.21693C11.2455 9.21693 11.5177 8.94467 11.5177 8.60883C11.5177 8.27298 11.2455 8.00072 10.9096 8.00072C10.5738 8.00072 10.3015 8.27298 10.3015 8.60883C10.3015 8.94467 10.5738 9.21693 10.9096 9.21693Z" fill="white"></path><path d="M8.55025 9.21693C8.8861 9.21693 9.15835 8.94467 9.15835 8.60883C9.15835 8.27298 8.8861 8.00072 8.55025 8.00072C8.2144 8.00072 7.94214 8.27298 7.94214 8.60883C7.94214 8.94467 8.2144 9.21693 8.55025 9.21693Z" fill="white"></path><path d="M6.11775 9.21693C6.4536 9.21693 6.72586 8.94467 6.72586 8.60883C6.72586 8.27298 6.4536 8.00072 6.11775 8.00072C5.7819 8.00072 5.50964 8.27298 5.50964 8.60883C5.50964 8.94467 5.7819 9.21693 6.11775 9.21693Z" fill="white"></path><path d="M18.2434 9.77032C18.0821 9.77032 17.9274 9.70625 17.8134 9.59221C17.6994 9.47817 17.6353 9.32349 17.6353 9.16221V3.00208C17.6337 2.70097 17.5134 2.41266 17.3005 2.19975C17.0875 1.98683 16.7992 1.86651 16.4981 1.86491H4.25691C4.09563 1.86491 3.94096 1.80084 3.82691 1.6868C3.71287 1.57276 3.6488 1.41809 3.6488 1.25681C3.6488 1.09552 3.71287 0.94085 3.82691 0.826808C3.94096 0.712765 4.09563 0.648697 4.25691 0.648697H16.4981C17.1218 0.650302 17.7194 0.898762 18.1604 1.33976C18.6014 1.78076 18.8499 2.37841 18.8515 3.00208V9.16221C18.8515 9.32349 18.7874 9.47817 18.6734 9.59221C18.5594 9.70625 18.4047 9.77032 18.2434 9.77032Z" fill="white"></path></svg>