<svg xmlns="http://www.w3.org/2000/svg" width="20" height="20" viewBox="0 0 20 20" fill="none"><g clip-path="url(#clip0_123_2890)"><path d="M1.74544 17.3676C1.44434 17.366 1.15602 17.2457 0.943108 17.0328C0.730194 16.8199 0.609874 16.5315 0.608276 16.2304V6.87773C0.609882 6.25407 0.858342 5.65641 1.29934 5.21542C1.74033 4.77442 2.33799 4.52596 2.96165 4.52435H14.0596C14.6843 4.52435 15.2836 4.7721 15.7259 5.21327C16.1682 5.65444 16.4175 6.25302 16.4191 6.87773V13.1108C16.4191 13.7356 16.1713 14.3348 15.7302 14.7771C15.289 15.2194 14.6904 15.4687 14.0657 15.4703H4.8103C4.70518 15.4712 4.60302 15.5052 4.51841 15.5676L2.4326 17.1426C2.23372 17.2896 1.99273 17.3685 1.74544 17.3676ZM2.96165 5.74057C2.66055 5.74217 2.37224 5.86249 2.15932 6.0754C1.94641 6.28832 1.82609 6.57663 1.82449 6.87773V16.0784L3.78868 14.5946C4.08422 14.3751 4.44217 14.2558 4.8103 14.2541H14.0596C14.3628 14.2541 14.6536 14.1336 14.868 13.9192C15.0824 13.7048 15.2029 13.414 15.2029 13.1108V6.87773C15.2013 6.57663 15.081 6.28832 14.868 6.0754C14.6551 5.86249 14.3668 5.74217 14.0657 5.74057H2.96165Z" fill="#1EB0FC"></path><path d="M10.9096 10.6602C11.2455 10.6602 11.5177 10.3879 11.5177 10.052C11.5177 9.7162 11.2455 9.44394 10.9096 9.44394C10.5738 9.44394 10.3015 9.7162 10.3015 10.052C10.3015 10.3879 10.5738 10.6602 10.9096 10.6602Z" fill="#1EB0FC"></path><path d="M8.55025 10.6602C8.8861 10.6602 9.15835 10.3879 9.15835 10.052C9.15835 9.7162 8.8861 9.44394 8.55025 9.44394C8.2144 9.44394 7.94214 9.7162 7.94214 10.052C7.94214 10.3879 8.2144 10.6602 8.55025 10.6602Z" fill="#1EB0FC"></path><path d="M6.11775 10.6602C6.4536 10.6602 6.72586 10.3879 6.72586 10.052C6.72586 9.7162 6.4536 9.44394 6.11775 9.44394C5.7819 9.44394 5.50964 9.7162 5.50964 10.052C5.50964 10.3879 5.7819 10.6602 6.11775 10.6602Z" fill="#1EB0FC"></path><path d="M18.2434 11.2135C18.0821 11.2135 17.9274 11.1495 17.8134 11.0354C17.6994 10.9214 17.6353 10.7667 17.6353 10.6054V4.4453C17.6337 4.1442 17.5134 3.85588 17.3005 3.64297C17.0875 3.43005 16.7992 3.30973 16.4981 3.30814H4.25691C4.09563 3.30814 3.94096 3.24407 3.82691 3.13002C3.71287 3.01598 3.6488 2.86131 3.6488 2.70003C3.6488 2.53875 3.71287 2.38407 3.82691 2.27003C3.94096 2.15599 4.09563 2.09192 4.25691 2.09192H16.4981C17.1218 2.09352 17.7194 2.34198 18.1604 2.78298C18.6014 3.22398 18.8499 3.82164 18.8515 4.4453V10.6054C18.8515 10.7667 18.7874 10.9214 18.6734 11.0354C18.5594 11.1495 18.4047 11.2135 18.2434 11.2135Z" fill="#1EB0FC"></path></g><defs><clipPath id="clip0_123_2890"><rect width="19.4595" height="19.4595" fill="white"></rect></clipPath></defs></svg>