<svg xmlns="http://www.w3.org/2000/svg" viewBox="0 0 186.53 186.53"><defs><style>.cls-1{fill:#fff;}</style></defs><g id="Calque_2" data-name="Calque 2"><g id="Calque_1-2" data-name="Calque 1"><path class="cls-1" d="M93.27,0a93.27,93.27,0,1,0,93.26,93.27A93.27,93.27,0,0,0,93.27,0Zm30.28,140.62H58.29V122.41L93.47,89.9a34.07,34.07,0,0,0,5.35-6.63,14.34,14.34,0,0,0,2-7.55,10.79,10.79,0,0,0-3.06-8,12.09,12.09,0,0,0-16.88.78,17.47,17.47,0,0,0-4,10.1L56.38,75.74a33.4,33.4,0,0,1,3.76-12.53,32,32,0,0,1,18.1-15.27,38.26,38.26,0,0,1,12.55-2A43.41,43.41,0,0,1,102.9,47.6a31.35,31.35,0,0,1,10.45,5.21,26,26,0,0,1,7.33,8.86,27,27,0,0,1,2.74,12.51,29.43,29.43,0,0,1-1.27,8.92,30.05,30.05,0,0,1-3.51,7.36,42.25,42.25,0,0,1-5.1,6.32q-2.87,2.94-5.92,5.8l-20.91,19h36.84Z"></path></g></g></svg>