<svg xmlns="http://www.w3.org/2000/svg" viewBox="0 0 186.53 186.53"><defs><style>.cls-1{fill:#fff;}</style></defs><g id="Calque_2" data-name="Calque 2"><g id="Calque_1-2" data-name="Calque 1"><path class="cls-1" d="M93.27,0a93.27,93.27,0,1,0,93.26,93.27A93.27,93.27,0,0,0,93.27,0Zm30.11,125.66a27.27,27.27,0,0,1-7.84,9.11,34.12,34.12,0,0,1-10.89,5.33,44,44,0,0,1-12.3,1.76,49.8,49.8,0,0,1-11.92-1.43,37.11,37.11,0,0,1-10.58-4.37,30.8,30.8,0,0,1-8.34-7.55,31.82,31.82,0,0,1-5.36-11.14L76,112a16.33,16.33,0,0,0,5.22,8,14.75,14.75,0,0,0,10.07,3.45,17.56,17.56,0,0,0,4.65-.65,12.93,12.93,0,0,0,4.21-2,10.94,10.94,0,0,0,3.06-3.58,11.39,11.39,0,0,0,1.21-5.48,10.24,10.24,0,0,0-1.6-5.86,11.34,11.34,0,0,0-4.2-3.71,20.68,20.68,0,0,0-5.93-2,38.07,38.07,0,0,0-6.63-.58H80.37V83.75h6.24a37.06,37.06,0,0,0,5.87-.45,15.49,15.49,0,0,0,5-1.71,9.8,9.8,0,0,0,3.57-3.34,10.15,10.15,0,0,0,1.34-5.51A9,9,0,0,0,99,65.14a12.69,12.69,0,0,0-7.91-2.62,12.07,12.07,0,0,0-8,2.8,13,13,0,0,0-4.4,7.49L58.83,68.12a30.29,30.29,0,0,1,5-10.23,30.69,30.69,0,0,1,7.84-7.29,35.57,35.57,0,0,1,9.88-4.43,40.37,40.37,0,0,1,11-1.5,43.77,43.77,0,0,1,11.66,1.56,31.22,31.22,0,0,1,10.13,4.83,25.45,25.45,0,0,1,7.2,8.16,23.21,23.21,0,0,1,2.74,11.54,20,20,0,0,1-4.27,13A20.8,20.8,0,0,1,109,90.86v.39a22.83,22.83,0,0,1,7,2.93A22.49,22.49,0,0,1,121.53,99a21.64,21.64,0,0,1,3.57,6.25,21,21,0,0,1,1.28,7.35A27,27,0,0,1,123.38,125.66Z"></path></g></g></svg>