<svg xmlns="http://www.w3.org/2000/svg" xmlns:xlink="http://www.w3.org/1999/xlink" width="512px" height="512px" style="shape-rendering:geometricPrecision; text-rendering:geometricPrecision; image-rendering:optimizeQuality; fill-rule:evenodd; clip-rule:evenodd"><g><path style="opacity:0.989" fill="#000000" d="M 151.5,-0.5 C 220.833,-0.5 290.167,-0.5 359.5,-0.5C 393.046,7.212 413.879,27.8787 422,61.5C 422.5,83.8308 422.667,106.164 422.5,128.5C 469.309,125.025 498.976,145.692 511.5,190.5C 511.5,238.833 511.5,287.167 511.5,335.5C 499.417,380.868 469.75,401.868 422.5,398.5C 422.965,425.884 422.465,453.218 421,480.5C 415.052,496.62 403.885,506.953 387.5,511.5C 299.5,511.5 211.5,511.5 123.5,511.5C 107.106,506.944 95.9396,496.611 90,480.5C 88.5347,453.218 88.0347,425.884 88.5,398.5C 41.6957,401.981 12.0291,381.314 -0.5,336.5C -0.5,287.833 -0.5,239.167 -0.5,190.5C 12.0291,145.686 41.6957,125.019 88.5,128.5C 88.3334,106.164 88.5,83.8308 89,61.5C 94.1431,35.0527 108.976,16.2194 133.5,5C 139.519,2.83459 145.519,1.00126 151.5,-0.5 Z M 163.5,29.5 C 224.834,29.3333 286.168,29.5 347.5,30C 374.333,32.8333 389.167,47.6667 392,74.5C 392.5,92.4969 392.667,110.497 392.5,128.5C 301.167,128.5 209.833,128.5 118.5,128.5C 118.333,110.497 118.5,92.4969 119,74.5C 122.011,47.6563 136.844,32.6563 163.5,29.5 Z M 74.5,158.5 C 195.167,158.333 315.834,158.5 436.5,159C 459.393,160.561 473.893,172.394 480,194.5C 481.117,217.475 481.617,240.475 481.5,263.5C 481.617,286.525 481.117,309.525 480,332.5C 475.167,350.667 463.667,362.167 445.5,367C 437.869,368.069 430.202,368.569 422.5,368.5C 422.5,351.833 422.5,335.167 422.5,318.5C 427.511,318.666 432.511,318.499 437.5,318C 445.915,313.652 448.748,306.819 446,297.5C 444.5,293.333 441.667,290.5 437.5,289C 316.167,288.333 194.833,288.333 73.5,289C 64.5253,294.152 62.0253,301.652 66,311.5C 67.7648,314.473 70.2648,316.64 73.5,318C 78.4889,318.499 83.4889,318.666 88.5,318.5C 88.5,335.167 88.5,351.833 88.5,368.5C 67.1317,371.332 49.965,364.332 37,347.5C 32.4925,340.137 30.1592,332.137 30,323.5C 29.3333,283.5 29.3333,243.5 30,203.5C 33.0109,176.656 47.8443,161.656 74.5,158.5 Z M 118.5,318.5 C 209.833,318.5 301.167,318.5 392.5,318.5C 392.667,367.834 392.5,417.168 392,466.5C 391.167,475.333 386.333,480.167 377.5,481C 296.167,481.667 214.833,481.667 133.5,481C 124.667,480.167 119.833,475.333 119,466.5C 118.5,417.168 118.333,367.834 118.5,318.5 Z"></path></g><g><path style="opacity:0.976" fill="#000000" d="M 73.5,192.5 C 93.5028,192.333 113.503,192.5 133.5,193C 141.915,197.348 144.748,204.181 142,213.5C 140.5,217.667 137.667,220.5 133.5,222C 113.5,222.667 93.5,222.667 73.5,222C 64.5253,216.848 62.0253,209.348 66,199.5C 68.0147,196.588 70.5147,194.255 73.5,192.5 Z"></path></g><g><path style="opacity:0.983" fill="#000000" d="M 209.5,352.5 C 240.168,352.333 270.835,352.5 301.5,353C 309.915,357.348 312.748,364.181 310,373.5C 308.5,377.667 305.667,380.5 301.5,382C 270.833,382.667 240.167,382.667 209.5,382C 200.525,376.848 198.025,369.348 202,359.5C 204.015,356.588 206.515,354.255 209.5,352.5 Z"></path></g><g><path style="opacity:0.983" fill="#000000" d="M 209.5,416.5 C 240.168,416.333 270.835,416.5 301.5,417C 309.915,421.348 312.748,428.181 310,437.5C 308.5,441.667 305.667,444.5 301.5,446C 270.833,446.667 240.167,446.667 209.5,446C 200.525,440.848 198.025,433.348 202,423.5C 204.015,420.588 206.515,418.255 209.5,416.5 Z"></path></g></svg>