<svg xmlns="http://www.w3.org/2000/svg" width="68" height="68" viewBox="0 0 68 68" fill="none"><mask id="mask0_431_1008" style="mask-type:luminance" maskUnits="userSpaceOnUse" x="0" y="0" width="68" height="68"><path d="M0 0H67.8654V67.7979H0V0Z" fill="white"></path></mask><g mask="url(#mask0_431_1008)"><path d="M48.273 47.1281L43.5601 39.6549C43.3581 39.3856 43.0215 39.1836 42.6849 39.1836H39.3859C38.8472 39.1836 38.376 39.6549 38.376 40.1935V47.1281H17.9759C15.2829 47.1281 13.1284 49.2826 13.1284 51.9757V55.8806C13.1284 58.5737 15.2829 60.7281 17.9759 60.7281H19.4571C19.7938 63.1519 21.8809 65.037 24.372 65.037C26.8631 65.037 28.9502 63.1519 29.2868 60.7281H29.3542H41.5403C41.877 63.1519 43.9641 64.9697 46.4552 64.9697C48.9463 64.9697 51.0334 63.0846 51.37 60.6608H53.5245C56.2176 60.6608 58.372 58.5064 58.372 55.8133C58.5067 51.1004 52.6492 47.5321 48.273 47.1281ZM40.3958 41.2034H42.1463L45.8492 47.1281H40.3958V41.2034ZM24.372 62.9499C22.7561 62.9499 21.4096 61.6034 21.4096 59.9875C21.4096 58.3717 22.7561 57.0252 24.372 57.0252C25.9878 57.0252 27.3344 58.3717 27.3344 59.9875C27.3344 61.6034 25.9878 62.9499 24.372 62.9499ZM46.5225 62.9499C44.9067 62.9499 43.5601 61.6034 43.5601 59.9875C43.5601 58.3717 44.9067 57.0252 46.5225 57.0252C48.1383 57.0252 49.4849 58.3717 49.4849 59.9875C49.4849 61.6034 48.1383 62.9499 46.5225 62.9499ZM53.5918 58.7083H51.3027C50.6968 56.6212 48.8116 55.0054 46.5225 55.0054C44.2334 55.0054 42.2809 56.5539 41.7423 58.7083H29.3542C29.2868 58.7083 29.2195 58.7083 29.1522 58.7083C28.6136 56.5539 26.6611 55.0054 24.3047 55.0054C22.0156 55.0054 20.0631 56.5539 19.5245 58.7083H17.9086C16.3601 58.7083 15.0809 57.4291 15.0809 55.8806V51.9757C15.0809 50.4272 16.3601 49.1479 17.9086 49.1479H47.3304C51.3027 49.1479 56.4195 52.447 56.4195 55.8806C56.4869 57.4291 55.2077 58.7083 53.5918 58.7083Z" fill="white" stroke="white" stroke-width="2.2"></path><path d="M6.86713 22.1501C6.79981 21.8808 6.59783 21.6788 6.39585 21.5442C6.12655 21.4095 5.85724 21.4095 5.65526 21.4768L0.875064 23.0254C0.336447 23.2273 0.0671414 23.7659 0.201795 24.3046C0.403775 24.8432 0.942391 25.1125 1.481 24.9778L3.70279 24.2372C2.35625 27.8055 1.68298 31.5085 1.68298 35.3461C1.68298 39.9244 2.62556 44.3006 4.51071 48.4075C4.71269 48.8115 5.04932 49.0135 5.45328 49.0135C5.58793 49.0135 5.72259 49.0135 5.85724 48.9461C6.39585 48.7442 6.59783 48.1382 6.32853 47.5996C4.57803 43.762 3.70279 39.655 3.70279 35.3461C3.70279 31.7105 4.37605 28.2095 5.58793 24.9105L6.46318 27.6036C6.59783 28.0075 7.00179 28.2768 7.40575 28.2768C7.5404 28.2768 7.60773 28.2768 7.74238 28.2095C8.281 28.0075 8.5503 27.4689 8.41565 26.9303L6.86713 22.1501Z" fill="white" stroke="white" stroke-width="2.2"></path><path d="M67.0571 45.9159C66.7878 45.4446 66.1819 45.2427 65.7106 45.4447L63.4215 46.5892C64.8354 43.0209 65.5086 39.1833 65.5086 35.2784C65.5086 30.7002 64.5661 26.3239 62.6809 22.217C62.4789 21.6784 61.873 21.4764 61.3344 21.7457C60.7958 21.9477 60.5938 22.5536 60.8631 23.0923C62.6136 26.9299 63.4888 31.0368 63.4888 35.2784C63.4888 38.9814 62.8156 42.617 61.469 46.0507L60.2571 43.6269C59.9878 43.1556 59.3819 42.9536 58.9106 43.1556C58.4393 43.4249 58.2373 44.0308 58.4393 44.5021L60.7284 49.013C60.8631 49.2823 61.0651 49.4169 61.3344 49.5516C61.469 49.6189 61.5363 49.6189 61.671 49.6189C61.8057 49.6189 62.0076 49.5516 62.1423 49.4843L66.6532 47.1951C67.1245 47.0605 67.3264 46.4545 67.0571 45.9159Z" fill="white" stroke="white" stroke-width="2.2"></path><path d="M54.5345 21.8134C55.1405 21.8134 55.6118 21.3421 55.6791 20.7361L55.8138 14.2728C55.8138 13.8015 55.5444 13.3975 55.1405 13.2629L44.9068 8.68465L40.9345 2.28861C40.7326 1.95198 40.3959 1.75 39.992 1.75H25.5167C25.1128 1.75 24.7761 1.95198 24.5741 2.28861L20.3999 9.02128H14.4751C13.8692 9.02128 13.3306 9.49257 13.3306 10.1658V20.8035C13.3306 21.4094 13.8019 21.948 14.4751 21.948H18.5147C18.9187 24.1698 20.8712 25.853 23.2276 25.853C25.584 25.853 27.5365 24.1698 27.9405 21.948H38.8474C39.2514 24.1698 41.2038 25.853 43.5603 25.853C45.9167 25.853 47.8692 24.1698 48.2732 21.948C48.0712 21.8134 54.5345 21.8134 54.5345 21.8134ZM15.5524 11.1757H20.8038H20.8712H20.9385C21.3425 11.1757 21.6791 10.9738 21.8811 10.6371L26.0553 3.90446H39.2514L43.089 10.0312C43.1563 10.0985 43.1563 10.1658 43.2236 10.2332L43.291 10.3005L43.3583 10.3678C43.4256 10.4351 43.493 10.4351 43.5603 10.5025L53.4573 14.8787L53.39 19.5243H47.9365C47.3306 17.5718 45.5128 16.1579 43.3583 16.1579C41.2038 16.1579 39.386 17.5718 38.7801 19.5243H27.7385C27.1326 17.5718 25.3147 16.1579 23.1603 16.1579C21.0058 16.1579 19.188 17.5718 18.5821 19.5243H15.5524V11.1757ZM23.1603 23.4292C21.7464 23.4292 20.6692 22.2846 20.6692 20.9381C20.6692 19.5243 21.8137 18.447 23.1603 18.447C24.5068 18.447 25.6514 19.5916 25.6514 20.9381C25.6514 22.352 24.5741 23.4292 23.1603 23.4292ZM43.4256 23.4292C42.0118 23.4292 40.9345 22.2846 40.9345 20.9381C40.9345 19.5243 42.0791 18.447 43.4256 18.447C44.8395 18.447 45.9167 19.5916 45.9167 20.9381C45.9167 22.352 44.7722 23.4292 43.4256 23.4292Z" fill="white" stroke="white" stroke-width="2.2"></path></g></svg>