<svg xmlns="http://www.w3.org/2000/svg" xmlns:xlink="http://www.w3.org/1999/xlink" width="512px" height="512px" style="shape-rendering:geometricPrecision; text-rendering:geometricPrecision; image-rendering:optimizeQuality; fill-rule:evenodd; clip-rule:evenodd"><g><path style="opacity:0.964" fill="#000000" d="M 381.5,-0.5 C 390.167,-0.5 398.833,-0.5 407.5,-0.5C 447.047,8.2156 470.547,32.5489 478,72.5C 480.941,113.468 464.107,142.968 427.5,161C 391.291,174.154 359.457,167.32 332,140.5C 286.218,168.636 240.718,197.136 195.5,226C 202.167,245.667 202.167,265.333 195.5,285C 240.718,313.864 286.218,342.364 332,370.5C 359.421,343.69 391.254,336.857 427.5,350C 464.107,368.032 480.941,397.532 478,438.5C 470.547,478.451 447.047,502.784 407.5,511.5C 398.833,511.5 390.167,511.5 381.5,511.5C 331.326,498.794 307.826,466.461 311,414.5C 311.96,408.823 313.46,403.323 315.5,398C 270.235,369.451 224.735,341.284 179,313.5C 147.716,341.907 112.883,347.074 74.5,329C 39.4843,305.986 26.3176,273.82 35,232.5C 50.533,189.139 81.3663,168.973 127.5,172C 147.348,175.205 164.515,183.705 179,197.5C 224.735,169.716 270.235,141.549 315.5,113C 303.147,73.7332 312.813,41.0666 344.5,15C 355.765,7.02691 368.098,1.86024 381.5,-0.5 Z M 388.5,30.5 C 423.612,30.9445 443.279,48.6111 447.5,83.5C 445.435,108.805 432.435,125.639 408.5,134C 380.465,139.399 359.631,129.565 346,104.5C 336.426,76.836 343.593,54.6693 367.5,38C 374.209,34.2945 381.209,31.7945 388.5,30.5 Z M 111.5,202.5 C 145.932,203.707 165.266,221.373 169.5,255.5C 166.164,287.502 148.498,305.169 116.5,308.5C 84.4813,305.148 66.8146,287.481 63.5,255.5C 66.281,225.724 82.281,208.058 111.5,202.5 Z M 393.5,374.5 C 419.207,376.266 436.373,389.266 445,413.5C 450.399,441.535 440.565,462.369 415.5,476C 391.155,484.872 370.322,479.705 353,460.5C 337.408,437.931 337.742,415.597 354,393.5C 364.853,382.155 378.02,375.822 393.5,374.5 Z"></path></g></svg>