<svg xmlns="http://www.w3.org/2000/svg" width="39" height="36" viewBox="0 0 39 36" fill="none"><g clip-path="url(#clip0_6_230)"><path d="M29.6862 11.0998V13.9124H28.1701L25.3483 10.5624C25.2156 10.4048 25.05 10.278 24.8632 10.1911C24.6764 10.1042 24.4728 10.0593 24.2667 10.0593H20.1232V8.52722H23.1554V7.70172C23.1554 7.57678 23.1057 7.45696 23.0174 7.36862C22.9291 7.28028 22.8092 7.23065 22.6843 7.23065H15.8424C15.7175 7.23065 15.5977 7.28028 15.5093 7.36862C15.421 7.45696 15.3714 7.57678 15.3714 7.70172V8.52722H17.8868V10.0616H14.7974C14.5543 10.0619 14.3155 10.1252 14.1043 10.2455C13.893 10.3657 13.7166 10.5387 13.5923 10.7476L12.1883 13.0343H8.56152C8.43771 13.034 8.31507 13.0582 8.20063 13.1054C8.08619 13.1527 7.98221 13.2221 7.89466 13.3096C7.80712 13.3972 7.73773 13.5011 7.69049 13.6156C7.64325 13.73 7.61909 13.8527 7.61939 13.9765V16.3089H6.04384V13.1715H4.21447C4.09096 13.1709 3.96855 13.1948 3.85428 13.2416C3.74 13.2884 3.6361 13.3574 3.54856 13.4445C3.46101 13.5317 3.39154 13.6352 3.34414 13.7493C3.29674 13.8633 3.27234 13.9856 3.27234 14.1091V20.5371C3.27234 20.7869 3.3716 21.0266 3.54828 21.2033C3.72497 21.3799 3.9646 21.4792 4.21447 21.4792H6.04384V19.0759H7.61025V20.8092C7.61025 21.0591 7.70951 21.2987 7.88619 21.4754C8.06287 21.6521 8.30251 21.7513 8.55237 21.7513H12.1197L14.4704 24.3925C14.6029 24.5417 14.7656 24.6611 14.9478 24.7427C15.1299 24.8243 15.3273 24.8663 15.5269 24.8658H26.7867C27.1615 24.8658 27.5209 24.7169 27.786 24.4519C28.051 24.1869 28.1999 23.8274 28.1999 23.4526V21.8405H29.6016V24.8681H34.7879C35.037 24.8681 35.2759 24.7695 35.4525 24.5938C35.629 24.4181 35.7288 24.1796 35.73 23.9306V12.0396C35.73 11.7898 35.6308 11.5501 35.4541 11.3734C35.2774 11.1968 35.0378 11.0975 34.7879 11.0975L29.6862 11.0998Z" stroke="#5E6A74" stroke-width="1.37203" stroke-miterlimit="10"></path></g><defs><clipPath id="clip0_6_230"><rect width="39" height="35.4213" fill="white"></rect></clipPath></defs></svg>