<svg xmlns="http://www.w3.org/2000/svg" width="35" height="24" viewBox="0 0 35 24" fill="none"><g clip-path="url(#clip0_6_219)"><path d="M20.2174 17.7043C20.4172 18.4083 20.3614 19.1604 20.0597 19.8271C19.907 20.1676 19.6925 20.4768 19.4269 20.7389C19.0416 21.1274 18.5604 21.4071 18.0322 21.5497C17.504 21.6922 16.9475 21.6926 16.4191 21.5508C15.8907 21.409 15.4091 21.13 15.0233 20.7421C14.6374 20.3542 14.361 19.8712 14.222 19.342C14.083 18.8129 14.0863 18.2564 14.2317 17.7289C14.3771 17.2015 14.6593 16.7218 15.0498 16.3386C15.4403 15.9554 15.9252 15.6822 16.4552 15.5468C16.9853 15.4113 17.5418 15.4184 18.0683 15.5673L23.3066 11.0649L24.6814 12.4397L20.2174 17.7043Z" stroke="#5E6A74" stroke-width="1.21304" stroke-miterlimit="10"></path><path d="M17.2413 2.34723C12.9453 2.35258 8.82684 4.06152 5.78912 7.09924C2.7514 10.137 1.04246 14.2554 1.03711 18.5514C1.03711 18.9821 1.05328 19.4066 1.08967 19.8271H8.26076V17.2636H4.26582C4.5152 14.7001 5.52396 12.2693 7.16296 10.2825L9.99339 13.113L11.813 11.2934L8.98252 8.46297C10.9679 6.8252 13.3961 5.81591 15.9575 5.56381V9.56684H18.5251V5.56381C21.5276 5.85378 24.3359 7.17874 26.4689 9.31172C28.6019 11.4447 29.9268 14.253 30.2168 17.2555H26.2218V19.813H33.3929C33.4293 19.3925 33.4455 18.9679 33.4455 18.5373C33.4359 14.2439 31.7251 10.1294 28.6879 7.09481C25.6507 4.06027 21.5347 2.3531 17.2413 2.34723Z" stroke="#5E6A74" stroke-width="1.21304" stroke-miterlimit="10"></path></g><defs><clipPath id="clip0_6_219"><rect width="34.4807" height="24" fill="white"></rect></clipPath></defs></svg>