<svg xmlns="http://www.w3.org/2000/svg" width="34" height="36" viewBox="0 0 34 36" fill="none"><g clip-path="url(#clip0_6_245)"><path d="M10.5997 32.8165H23.3983C23.4659 32.8165 23.5308 32.7896 23.5787 32.7418C23.6266 32.6939 23.6534 32.629 23.6534 32.5614V19.5873C23.6519 19.5207 23.6243 19.4573 23.5766 19.4107C23.5289 19.3642 23.4649 19.3381 23.3983 19.3381H10.5997C10.532 19.3381 10.4671 19.365 10.4192 19.4129C10.3714 19.4607 10.3445 19.5256 10.3445 19.5933V32.5673C10.3445 32.635 10.3714 32.6999 10.4192 32.7478C10.4671 32.7956 10.532 32.8225 10.5997 32.8225V32.8165ZM11.3293 31.5745V25.1952C11.3292 25.142 11.3457 25.09 11.3765 25.0466C11.4073 25.0032 11.451 24.9706 11.5013 24.9532C11.5516 24.9359 11.6061 24.9347 11.6571 24.9498C11.7081 24.965 11.7531 24.9957 11.7858 25.0377C11.9373 25.237 12.047 25.4364 12.1845 25.6358C12.4298 25.9647 12.8384 26.499 13.0537 26.4471C13.4285 26.3554 13.6518 25.8989 13.9449 25.564C14.0286 25.4683 14.4412 24.7965 14.8539 24.3081C15.0114 24.1207 15.3264 24.2383 15.4221 24.33C15.676 24.5647 15.8907 24.8387 16.058 25.1414C16.2465 25.5012 16.4033 25.8767 16.5265 26.2637C16.5462 26.3123 16.5753 26.3566 16.6121 26.3939C16.649 26.4313 16.6928 26.461 16.7412 26.4813C16.7895 26.5017 16.8414 26.5124 16.8938 26.5126C16.9463 26.5129 16.9983 26.5029 17.0468 26.483C17.1317 26.4485 17.2021 26.3859 17.2462 26.3056C17.3538 26.0823 17.4455 25.9069 17.5352 25.7315C18.0237 24.8104 19.1879 24.2762 19.8378 24.956C21.022 26.19 21.6938 25.5859 22.4693 24.643H22.4972C22.5585 24.6508 22.6147 24.681 22.6552 24.7277C22.6956 24.7744 22.7175 24.8344 22.7165 24.8962V31.5785C22.7165 31.6462 22.6896 31.7111 22.6417 31.759C22.5939 31.8068 22.529 31.8337 22.4613 31.8337H11.5825C11.549 31.8334 11.5159 31.8266 11.485 31.8135C11.4541 31.8005 11.4262 31.7814 11.4026 31.7576C11.3791 31.7337 11.3606 31.7054 11.348 31.6743C11.3354 31.6433 11.3291 31.6101 11.3293 31.5765V31.5745Z" stroke="#5E6A74" stroke-width="1.19613" stroke-miterlimit="10"></path><path d="M10.6994 18.3573C10.8299 18.2053 10.9683 18.0602 11.1141 17.9227C14.4493 14.9683 15.6992 11.6112 14.6028 7.31306C14.1542 5.55674 15.1331 3.52531 16.6581 2.89535C16.907 2.81823 17.1757 2.83671 17.4117 2.94718C18.9009 3.65888 19.8319 5.3833 19.3454 7.31306C18.3706 11.1646 19.4352 14.6015 22.3497 17.3825C22.6923 17.6792 23.0546 17.9523 23.4342 18.1998C23.5024 18.2415 23.5586 18.3001 23.5974 18.37C23.6362 18.4399 23.6562 18.5186 23.6555 18.5985H10.6396C10.6755 18.4291 10.6755 18.3832 10.6994 18.3573ZM16.999 7.74965C17.4516 7.74965 17.8204 7.07184 17.8204 6.23854C17.8204 5.40523 17.4516 4.72942 16.999 4.72942C16.5465 4.72942 16.1797 5.40523 16.1797 6.23854C16.1797 7.07184 16.5465 7.74965 16.999 7.74965Z" stroke="#5E6A74" stroke-width="1.19613" stroke-miterlimit="10"></path></g><defs><clipPath id="clip0_6_245"><rect width="34" height="34.0419" fill="white" transform="matrix(-1 0 0 1 34 0.997437)"></rect></clipPath></defs></svg>