<svg xmlns="http://www.w3.org/2000/svg" width="23" height="22" viewBox="0 0 23 22" fill="none"><g clip-path="url(#clip0_15_145)"><path d="M11.6739 2C6.75567 2 2.6387 5.97354 2.6387 10.9648C2.6387 15.9286 6.73261 20 11.6739 20C16.6706 20 20.6387 15.8777 20.6387 10.9648C20.6387 6.00996 16.6292 2 11.6739 2ZM11.6739 18.9523C7.27342 18.9523 3.68636 15.3653 3.68636 10.9648C3.68636 6.60318 7.27342 3.04766 11.6739 3.04766C16.0355 3.04766 19.591 6.60318 19.591 10.9648C19.591 15.3653 16.0355 18.9523 11.6739 18.9523Z" fill="#444444"></path><path d="M11.6739 4.10938C7.88437 4.10938 4.74808 7.18523 4.74808 10.9648C4.74808 12.8142 5.47992 14.6066 6.75599 15.8827C6.96176 16.0885 7.29585 16.0886 7.50176 15.8827L8.24936 15.1351C8.45527 14.9292 8.45527 14.5953 8.24936 14.3893C8.04345 14.1834 7.70953 14.1834 7.50359 14.3893L7.14672 14.7462C6.39652 13.8378 5.932 12.6933 5.82607 11.4922H6.33011C6.62134 11.4922 6.85745 11.2561 6.85745 10.9648C6.85745 10.6736 6.62134 10.4375 6.33011 10.4375H5.82727C5.93727 9.23744 6.41846 8.14166 7.1566 7.2637L7.50359 7.61069C7.7095 7.8166 8.04341 7.81664 8.24936 7.61069C8.4553 7.40475 8.4553 7.07087 8.24936 6.86492L7.90514 6.52071C8.7991 5.77947 9.91896 5.29625 11.1465 5.18776V5.69141C11.1465 5.98264 11.3826 6.21875 11.6739 6.21875C11.9651 6.21875 12.2012 5.98264 12.2012 5.69141V5.18829C13.3691 5.29404 14.438 5.74727 15.3037 6.44368L10.7579 9.67479C10.2968 10.0026 10.0215 10.4848 10.0215 10.9648C10.0215 11.0009 10.0229 11.0367 10.0255 11.0722C10.0853 11.882 10.8158 12.5469 11.6739 12.5469C12.1851 12.5469 12.6673 12.2979 12.9639 11.8807L16.195 7.335C16.8914 8.20068 17.3447 9.26965 17.4504 10.4375H16.9473C16.6561 10.4375 16.42 10.6736 16.42 10.9648C16.42 11.2561 16.6561 11.4922 16.9473 11.4922H17.4512C17.345 12.6915 16.8799 13.8354 16.1288 14.7442L15.7738 14.3893C15.5679 14.1834 15.234 14.1834 15.028 14.3893C14.8221 14.5953 14.8221 14.9291 15.028 15.1351L15.7736 15.8807C15.9794 16.0864 16.3135 16.0866 16.5194 15.8807C17.7967 14.6033 18.5293 12.8116 18.5293 10.9648C18.5293 7.18544 15.457 4.10938 11.6739 4.10938ZM12.1042 11.2697C12.0052 11.409 11.8443 11.4922 11.6739 11.4922C11.3667 11.4922 11.0762 11.2359 11.0762 10.9648C11.0762 10.8319 11.1939 10.6589 11.369 10.5344L13.9113 8.72732L12.1042 11.2697Z" fill="#444444"></path><path d="M12.7285 14.7266H10.5489C9.67653 14.7266 8.96683 15.4363 8.96683 16.3086C8.96683 17.1809 9.67653 17.8906 10.5489 17.8906H12.7285C13.6009 17.8906 14.3106 17.1809 14.3106 16.3086C14.3106 15.4363 13.6009 14.7266 12.7285 14.7266ZM12.7285 16.8359H10.5489C10.2581 16.8359 10.0215 16.5994 10.0215 16.3086C10.0215 16.0178 10.2581 15.7812 10.5489 15.7812H12.7285C13.0193 15.7812 13.2559 16.0178 13.2559 16.3086C13.2559 16.5994 13.0193 16.8359 12.7285 16.8359Z" fill="#444444"></path></g><defs><clipPath id="clip0_15_145"><rect width="18" height="18" fill="white" transform="translate(2.6387 2)"></rect></clipPath></defs></svg>