<svg xmlns="http://www.w3.org/2000/svg" width="19" height="19" viewBox="0 0 19 19" fill="none"><path d="M9.5 0C4.26168 0 0 4.26168 0 9.5C0 14.7383 4.26168 19 9.5 19C14.7383 19 19 14.7383 19 9.5C19 4.26168 14.7383 0 9.5 0ZM9.5 17.8824C4.87793 17.8824 1.11765 14.1221 1.11765 9.5C1.11765 4.87793 4.87793 1.11765 9.5 1.11765C14.1221 1.11765 17.8824 4.87793 17.8824 9.5C17.8824 14.1221 14.1221 17.8824 9.5 17.8824Z" fill="#383838"></path><path d="M14.24 5.79332L8.12244 11.951L4.98365 8.79178C4.71308 8.51914 4.27377 8.51914 4.00319 8.79178C3.73234 9.06428 3.73234 9.5062 4.00319 9.77869L7.63223 13.4315C7.76752 13.5678 7.94505 13.6359 8.12246 13.6359C8.29988 13.6359 8.47741 13.5678 8.6127 13.4315L15.2204 6.78024C15.4913 6.50774 15.4913 6.06582 15.2204 5.79332C14.9499 5.52072 14.5105 5.52072 14.24 5.79332Z" fill="#383838"></path></svg>