<svg xmlns="http://www.w3.org/2000/svg" width="22" height="24" viewBox="0 0 22 24" fill="none"><path d="M9.42054 13.6075C10.0556 14.3284 10.7389 14.9969 11.4647 15.6075C11.785 15.8756 12.1732 16.0299 12.5765 16.0496C12.9798 16.0693 13.3789 15.9533 13.7199 15.7175L14.2055 15.3876C14.5562 15.126 14.9739 14.9919 15.3986 15.0044C15.8233 15.017 16.2334 15.1756 16.5706 15.4575L18.8439 17.4575C18.9537 17.5516 19.0442 17.67 19.1091 17.8048C19.174 17.9397 19.2121 18.088 19.2208 18.2401C19.2294 18.3921 19.2084 18.5445 19.1592 18.6871C19.1101 18.8297 19.034 18.9594 18.9357 19.0675V19.0675C18.06 20.0252 16.932 20.6605 15.7092 20.8846C14.4864 21.1087 13.2301 20.9105 12.1157 20.3175C10.2251 19.302 8.50259 17.9502 7.01899 16.3175C5.52201 14.7032 4.28273 12.8273 3.35232 10.7675C2.80963 9.55058 2.62743 8.17963 2.8311 6.8447C3.03477 5.50978 3.61421 4.27709 4.48898 3.31754V3.31754C4.58752 3.2097 4.70572 3.12576 4.83608 3.07133C4.96645 3.01689 5.10604 2.99319 5.24541 3.00169C5.38477 3.01018 5.52089 3.0507 5.64488 3.12064C5.76887 3.19059 5.87777 3.28835 5.96469 3.40751L7.79802 5.8975C8.05153 6.24777 8.20004 6.67482 8.22301 7.1204C8.24597 7.56598 8.14239 8.00848 7.92648 8.38755L7.56885 8.99754C7.35389 9.36943 7.24767 9.80378 7.26404 10.2431C7.28041 10.6824 7.41869 11.1059 7.66061 11.4575C8.20856 12.2481 8.80576 12.9966 9.44806 13.6975L9.42054 13.6075Z" stroke="#202020" stroke-width="2" stroke-linejoin="round"></path></svg>