<svg xmlns="http://www.w3.org/2000/svg" width="38" height="26" viewBox="0 0 38 26" fill="none"><g clip-path="url(#clip0_6_215)"><path d="M35.5953 8.34032C34.417 5.58941 32.3472 4.02779 29.2086 4.16139C28.096 4.20958 26.9746 4.0913 25.8708 4.18986C24.7275 4.29499 24.0594 3.94456 23.8076 2.77937C23.5885 1.76968 23.0717 1.12795 21.8802 1.67112C21.9437 2.46179 22.0006 3.20427 22.0795 4.18548C16.777 4.18548 11.7264 4.25995 6.68012 4.14825C4.74178 4.10664 3.40794 4.78341 2.68298 6.49178C0.819112 10.8941 0.79502 15.3315 2.77935 19.7119C3.46708 21.2297 4.67826 21.9284 6.4151 21.9021C11.0693 21.843 15.7257 21.8824 20.3799 21.9021C20.9121 21.9021 21.4421 21.9569 22.0707 21.9941C22.005 22.9008 21.9503 23.6368 21.8933 24.4033C23.1746 24.8611 23.6083 24.123 23.847 23.1615C24.112 22.1014 24.6858 21.7247 25.8182 21.8473C27.0666 21.9875 28.3435 21.8802 29.6073 21.878C32.2574 21.878 34.1432 20.5989 35.3018 18.2948C36.9576 15.0402 37.0145 11.6716 35.5953 8.34032ZM9.03241 15.5987C9.19229 16.8405 9.05431 17.5874 8.03805 18.2269C7.70743 18.4441 7.39137 18.6826 7.09188 18.9409C6.97995 19.0357 6.83505 19.0822 6.6889 19.0703C6.54275 19.0584 6.40728 18.989 6.31216 18.8774C6.29322 18.8544 6.27567 18.8303 6.2596 18.8051C4.59504 16.0192 4.57751 10.2743 6.2596 7.21455C6.29504 7.15019 6.34284 7.09346 6.40025 7.0476C6.45766 7.00175 6.52355 6.96767 6.59415 6.94733C6.66475 6.92698 6.73867 6.92077 6.81168 6.92904C6.88468 6.93731 6.95534 6.9599 7.0196 6.99553C7.04531 7.00902 7.06953 7.02517 7.09188 7.04371C7.68221 7.47606 8.24002 7.95116 8.76082 8.46516C9.0324 8.75208 9.10687 9.32153 9.10468 9.76176C9.09373 11.7154 8.78272 13.6932 9.03241 15.5987ZM10.7057 5.78872H21.4005C21.4499 5.78872 21.4973 5.80833 21.5322 5.84325C21.5671 5.87816 21.5867 5.92551 21.5867 5.97489C21.587 6.00385 21.5805 6.03248 21.5675 6.05838C21.5546 6.08429 21.5356 6.10672 21.5122 6.12382C18.262 8.55277 13.323 8.55277 10.5787 6.11287C10.5426 6.07944 10.5211 6.03324 10.5186 5.98413C10.5162 5.93502 10.533 5.8869 10.5656 5.85004C10.5835 5.8308 10.6052 5.81542 10.6293 5.80488C10.6534 5.79433 10.6794 5.78883 10.7057 5.78872ZM21.3721 20.22H10.732C10.7073 20.2195 10.6829 20.214 10.6603 20.204C10.6376 20.194 10.6172 20.1797 10.6001 20.1618C10.583 20.1439 10.5696 20.1228 10.5607 20.0997C10.5517 20.0766 10.5474 20.052 10.548 20.0273C10.5482 20.0022 10.5536 19.9773 10.5638 19.9544C10.5739 19.9314 10.5887 19.9107 10.6072 19.8937C13.2354 17.5742 18.0057 17.5502 21.4772 19.8783C21.5184 19.9056 21.5472 19.948 21.5575 19.9964C21.5677 20.0447 21.5585 20.0951 21.5319 20.1368C21.5141 20.1626 21.4902 20.1837 21.4623 20.1982C21.4345 20.2128 21.4035 20.2202 21.3721 20.22ZM24.6158 19.0242C24.533 19.1443 24.4071 19.2278 24.2642 19.2572C24.1213 19.2866 23.9726 19.2596 23.8492 19.1819L21.7663 17.8371C21.6621 17.7674 21.584 17.665 21.5443 17.546C21.5047 17.4271 21.5057 17.2983 21.5473 17.18C22.5285 14.4925 22.5285 11.5447 21.5473 8.8572C21.5049 8.73898 21.5035 8.60995 21.5432 8.49081C21.5829 8.37167 21.6615 8.26931 21.7663 8.20014L23.8558 6.85973C23.9784 6.78135 24.1268 6.75376 24.2694 6.78278C24.4121 6.8118 24.5378 6.89516 24.6201 7.01524C26.346 9.47046 26.3307 16.5514 24.6158 19.0242ZM33.2255 18.7898C32.5684 19.6221 31.6617 20.0076 31.2149 19.6506C30.7681 19.2936 30.9477 18.3364 31.6135 17.4998C32.2793 16.6631 33.1861 16.2908 33.6241 16.639C34.0621 16.9873 33.8913 17.9597 33.2255 18.7898ZM33.9263 9.1047C33.5693 9.54274 32.6122 9.3719 31.7756 8.70827C30.9389 8.04464 30.5578 7.14227 30.9126 6.69766C31.2674 6.25304 32.2267 6.42826 33.0634 7.09408C33.9001 7.75991 34.2812 8.6579 33.9263 9.1047Z" stroke="#5E6A74" stroke-width="1.09511" stroke-miterlimit="10"></path></g><defs><clipPath id="clip0_6_215"><rect width="37.3541" height="26" fill="white"></rect></clipPath></defs></svg>