<svg xmlns="http://www.w3.org/2000/svg" width="36" height="33" viewBox="0 0 36 33" fill="none"><g clip-path="url(#clip0_6_235)"><path d="M13.0427 20.7873V22.6343H12.2828C12.0399 22.6343 11.7994 22.6822 11.5751 22.7753C11.3507 22.8684 11.1469 23.0048 10.9753 23.1767C10.8038 23.3487 10.6678 23.5528 10.5753 23.7774C10.4827 24.002 10.4353 24.2426 10.4359 24.4855V26.3324H10.0137C9.77144 26.3322 9.53149 26.3796 9.30756 26.4721C9.08362 26.5645 8.88009 26.7002 8.70859 26.8713C8.53708 27.0424 8.40096 27.2456 8.30799 27.4694C8.21502 27.6931 8.16703 27.9329 8.16675 28.1752V30.02H27.8543V28.1752C27.8543 27.6859 27.66 27.2167 27.314 26.8707C26.968 26.5247 26.4988 26.3303 26.0095 26.3303H18.001C18.001 25.3087 25.5641 24.4834 25.5641 24.4834C25.5644 24.2409 25.5169 24.0008 25.4243 23.7767C25.3317 23.5527 25.1958 23.349 25.0245 23.1775C24.8532 23.006 24.6497 22.8699 24.4257 22.777C24.2018 22.6842 23.9617 22.6364 23.7193 22.6364H18.001C18.001 21.619 22.9573 20.7894 22.9573 20.7894C22.9575 20.5466 22.9099 20.3062 22.817 20.0818C22.7242 19.8575 22.5879 19.6537 22.4162 19.4821C22.2444 19.3105 22.0404 19.1745 21.816 19.0819C21.5915 18.9893 21.351 18.9419 21.1082 18.9425H19.5842L18.0179 10.4675C18.8838 9.94676 19.541 9.14045 19.8765 8.18738C20.212 7.23432 20.2048 6.19411 19.8561 5.24579C19.5074 4.29747 18.839 3.50036 17.9661 2.99165C17.0931 2.48294 16.0701 2.29444 15.0731 2.45861C14.0761 2.62278 13.1676 3.12934 12.5038 3.8911C11.84 4.65287 11.4625 5.6222 11.4363 6.63225C11.4101 7.6423 11.7368 8.6299 12.3602 9.42507C12.9835 10.2202 13.8646 10.7733 14.8517 10.9889H14.8728L16.3504 18.9214H14.8728C14.383 18.9214 13.9132 19.116 13.5668 19.4623C13.2204 19.8087 13.0259 20.2785 13.0259 20.7683L13.0427 20.7873Z" stroke="#5E6A74" stroke-width="1.26649" stroke-miterlimit="10"></path></g><defs><clipPath id="clip0_6_235"><rect width="36" height="32.6966" fill="white"></rect></clipPath></defs></svg>