<svg xmlns="http://www.w3.org/2000/svg" width="32" height="30" viewBox="0 0 32 30" fill="none"><g clip-path="url(#clip0_6_240)"><path d="M26.1422 9.35139V2.70185C26.1422 2.52519 26.0721 2.35577 25.9471 2.23086C25.8222 2.10594 25.6528 2.03577 25.4762 2.03577H21.7649C21.5882 2.03577 21.4188 2.10594 21.2939 2.23086C21.169 2.35577 21.0988 2.52519 21.0988 2.70185V5.00217H17.4663C17.1356 4.61392 16.6644 4.37274 16.1561 4.33158C15.6478 4.29042 15.1439 4.45265 14.7551 4.78264C14.6764 4.85008 14.603 4.92347 14.5356 5.00217H10.9106V2.70185C10.9106 2.52584 10.8409 2.35699 10.7168 2.23218C10.5927 2.10737 10.4243 2.03676 10.2482 2.03577H6.5257C6.34905 2.03577 6.17963 2.10594 6.05471 2.23086C5.9298 2.35577 5.85962 2.52519 5.85962 2.70185V9.35139C5.85937 9.43893 5.87643 9.52566 5.90982 9.60658C5.94321 9.68751 5.99226 9.76103 6.05416 9.82293C6.11606 9.88484 6.18959 9.93389 6.27051 9.96727C6.35144 10.0007 6.43816 10.0177 6.5257 10.0175H10.2464C10.4225 10.0175 10.5915 9.94749 10.716 9.82293C10.8406 9.69837 10.9106 9.52943 10.9106 9.35327V7.05107H14.2597C14.4129 7.39136 14.662 7.67957 14.9765 7.88039V21.1645C14.7333 21.3176 14.5269 21.5226 14.3723 21.7649H10.9106V19.4627C10.9106 19.2872 10.8411 19.1188 10.7174 18.9943C10.5936 18.8699 10.4256 18.7995 10.2501 18.7985H6.5257C6.43848 18.7982 6.35206 18.8152 6.27138 18.8483C6.1907 18.8815 6.11734 18.9302 6.05549 18.9917C5.99364 19.0532 5.94451 19.1263 5.9109 19.2068C5.87729 19.2873 5.85987 19.3736 5.85962 19.4608V26.1103C5.85962 26.287 5.9298 26.4564 6.05471 26.5813C6.17963 26.7063 6.34905 26.7764 6.5257 26.7764H10.2464C10.4225 26.7764 10.5915 26.7064 10.716 26.5819C10.8406 26.4573 10.9106 26.2884 10.9106 26.1122V23.8119H14.3723C14.5454 24.0875 14.7856 24.3147 15.0705 24.4722C15.3553 24.6296 15.6755 24.7122 16.0009 24.7122C16.3264 24.7122 16.6465 24.6296 16.9314 24.4722C17.2162 24.3147 17.4564 24.0875 17.6295 23.8119H21.0894V26.1122C21.0894 26.1997 21.1066 26.2863 21.1401 26.3671C21.1736 26.4479 21.2226 26.5214 21.2845 26.5832C21.3463 26.6451 21.4198 26.6941 21.5006 26.7276C21.5814 26.7611 21.668 26.7783 21.7555 26.7783H25.4762C25.5637 26.7786 25.6504 26.7615 25.7313 26.7281C25.8123 26.6947 25.8858 26.6457 25.9477 26.5838C26.0096 26.5219 26.0587 26.4483 26.092 26.3674C26.1254 26.2865 26.1425 26.1998 26.1422 26.1122V19.4627C26.1417 19.2867 26.0716 19.118 25.9471 18.9936C25.8227 18.8691 25.654 18.799 25.478 18.7985H21.7649C21.6776 18.7982 21.5912 18.8152 21.5105 18.8483C21.4299 18.8815 21.3565 18.9302 21.2947 18.9917C21.2328 19.0532 21.1837 19.1263 21.1501 19.2068C21.1165 19.2873 21.099 19.3736 21.0988 19.4608V21.7649H17.637C17.4816 21.5228 17.2755 21.3173 17.0329 21.1626V7.88039C17.3487 7.68062 17.6002 7.39396 17.7571 7.05482H21.0969V9.35139C21.0969 9.43902 21.1142 9.52579 21.1478 9.60672C21.1814 9.68766 21.2306 9.76117 21.2927 9.82305C21.3547 9.88492 21.4284 9.93395 21.5094 9.96731C21.5904 10.0007 21.6772 10.0177 21.7649 10.0175H25.4855C25.6607 10.0155 25.828 9.94438 25.951 9.81963C26.074 9.69488 26.1427 9.52658 26.1422 9.35139Z" stroke="#5E6A74" stroke-width="1.12577" stroke-miterlimit="10"></path></g><defs><clipPath id="clip0_6_240"><rect width="32" height="29.0636" fill="white"></rect></clipPath></defs></svg>