<svg xmlns="http://www.w3.org/2000/svg" width="37" height="38" viewBox="0 0 37 38" fill="none"><g clip-path="url(#clip0_6_251)"><path d="M28.32 7.59306C28.333 7.04202 27.7776 4.26078 27.3134 3.16304C27.0465 2.52739 26.5454 2.46881 26.1007 2.39722C25.6524 2.36053 25.2012 2.38608 24.7599 2.47315C23.647 2.64237 23.2869 4.06553 23.2109 4.46254C23.1263 4.89643 23.2109 6.41504 23.3606 7.18954C23.4046 7.3997 23.4912 7.59862 23.6151 7.77399C23.739 7.94937 23.8975 8.09748 24.0809 8.20918C24.8486 8.60264 25.6727 8.87487 26.5237 9.01622C27.9968 9.26787 28.3048 8.13108 28.32 7.59306Z" stroke="#5E6A74" stroke-width="1.30167" stroke-miterlimit="10"></path><path d="M18.2646 29.4741C18.2689 29.349 18.2819 29.2243 18.3036 29.101C16.4314 28.3308 14.0407 27.4522 12.3225 27.0574C9.68442 26.4543 4.23475 26.1202 2.72915 26.4217C1.14111 26.7406 2.29526 28.0749 3.01335 29.1227C4.39963 30.945 5.89655 31.4896 7.51496 31.4896H15.7849C16.8494 31.517 17.9139 31.4925 18.9783 31.4158C18.5206 30.872 18.268 30.1849 18.2646 29.4741Z" stroke="#5E6A74" stroke-width="1.30167" stroke-miterlimit="10"></path><path d="M27.5911 11.3614C26.7617 11.0434 25.8748 10.903 24.9878 10.9492C24.1872 10.9991 21.3409 12.0904 19.2756 15.5463C17.7266 18.1496 16.4141 21.8377 15.9693 24.4042C15.7609 25.4061 15.8307 26.4459 16.1711 27.411C17.1278 27.7581 17.9631 28.0901 18.4946 28.307C18.7235 27.7474 19.1141 27.2689 19.6165 26.9327C20.119 26.5964 20.7103 26.4178 21.3149 26.4196C22.023 26.4205 22.7082 26.6709 23.25 27.1268C23.5516 24.8142 24.2328 21.2281 24.7231 19.8396C25.4282 17.8459 27.0205 13.609 27.5304 12.8215C28.0402 12.034 28.2029 11.6152 27.5911 11.3614Z" stroke="#5E6A74" stroke-width="1.30167" stroke-miterlimit="10"></path><path d="M21.3258 32.5418C20.7656 32.5375 20.2174 32.3783 19.7421 32.0819C18.8374 32.3465 17.3795 32.2988 15.7828 32.2988H7.51504C5.89663 32.2988 4.39971 31.7543 3.01343 29.9319C3.74453 30.982 3.80962 32.8867 3.80962 33.62C3.80962 34.3533 4.22181 34.6679 5.20674 34.6679H20.0089C21.1848 34.6679 22.0417 34.5095 22.4561 33.5831C22.5445 33.384 22.5815 33.1658 22.5637 32.9486C22.5458 32.7314 22.4738 32.5221 22.3541 32.34C22.0256 32.4664 21.6776 32.5346 21.3258 32.5418Z" stroke="#5E6A74" stroke-width="1.30167" stroke-miterlimit="10"></path><path d="M23.5581 29.4742C23.5577 29.0327 23.4264 28.6013 23.1808 28.2345C22.9353 27.8677 22.5865 27.5819 22.1785 27.4133C21.7706 27.2446 21.3218 27.2007 20.8889 27.2871C20.456 27.3735 20.0584 27.5863 19.7465 27.8986C19.4345 28.2109 19.2221 28.6086 19.1361 29.0416C19.0502 29.4746 19.0945 29.9233 19.2635 30.3311C19.4325 30.7389 19.7187 31.0874 20.0857 31.3326C20.4528 31.5778 20.8843 31.7087 21.3258 31.7087C21.6191 31.7087 21.9096 31.6509 22.1805 31.5386C22.4515 31.4262 22.6977 31.2616 22.905 31.0541C23.1124 30.8466 23.2768 30.6002 23.3888 30.3291C23.5009 30.058 23.5584 29.7675 23.5581 29.4742Z" stroke="#5E6A74" stroke-width="1.30167" stroke-miterlimit="10"></path><path d="M26.9424 10.7106L26.8274 9.35685C26.7256 9.35256 26.6241 9.34169 26.5237 9.32431L25.439 9.10736L25.5648 10.5782C26.0265 10.5908 26.4868 10.635 26.9424 10.7106Z" stroke="#5E6A74" stroke-width="1.30167" stroke-miterlimit="10"></path></g><defs><clipPath id="clip0_6_251"><rect width="37" height="37.0456" fill="white"></rect></clipPath></defs></svg>