<svg xmlns="http://www.w3.org/2000/svg" width="38" height="39" viewBox="0 0 38 39" fill="none"><g clip-path="url(#clip0_6_261)"><path d="M35.7741 14.6163C35.7679 14.416 35.7425 14.2168 35.6984 14.0214C35.6984 13.9657 34.2702 13.9835 34.1744 13.9813L31.8616 13.9211L28.642 13.8342C28.5239 13.8342 25.6809 13.7897 23.5174 14.6965L18.4552 16.8265C18.3157 16.6692 18.1669 16.5204 18.0096 16.3809L15.5008 16.8666L15.4852 16.8533L15.278 16.8934H15.2936L11.234 17.7178C10.9469 17.7974 10.6882 17.9565 10.4876 18.1768C10.1177 18.5377 8.20603 20.6143 8.09463 20.7346C8.09463 20.7346 7.90301 20.9262 8.09463 21.3228C8.10231 21.3442 8.1128 21.3644 8.12582 21.383C8.13551 21.4049 8.14746 21.4259 8.16147 21.4454V21.461L8.19266 21.51V21.5278L8.24168 21.5946C8.24168 21.5946 8.83212 22.2452 8.83881 22.2452C8.90525 22.2464 8.97152 22.2523 9.03711 22.2631L8.8143 22.5193L2.69152 29.8386L2.46871 30.0992L2.38627 30.1973C2.26872 30.3372 2.21139 30.518 2.22684 30.7C2.24229 30.8821 2.32926 31.0506 2.46871 31.1687L4.78592 33.1049C4.85502 33.1632 4.93496 33.2073 5.02115 33.2346C5.10733 33.2619 5.19806 33.2719 5.28812 33.264C5.37819 33.2562 5.46581 33.2306 5.54595 33.1887C5.6261 33.1469 5.69719 33.0897 5.75514 33.0203L5.8398 32.92L6.06261 32.6593L7.74259 30.654C8.40707 31.262 9.10241 31.8354 9.82585 32.3719C11.0246 33.2631 13.4955 35.2684 14.7811 34.9141C17.2164 34.2457 19.0791 28.1831 19.3821 27.6506C19.723 27.0579 19.567 26.1132 19.5559 25.9149C19.5158 25.1908 19.2217 24.46 18.9543 23.7871C18.787 23.4182 18.6383 23.0412 18.5087 22.6574C18.4151 22.3321 18.3706 21.989 18.2859 21.6704C18.1852 21.3799 18.0545 21.1006 17.896 20.8371C18.5198 20.5073 19.1326 20.1508 19.7497 19.8055C19.7338 19.5123 19.686 19.2216 19.6071 18.9388C20.5986 18.5199 21.5835 18.081 22.5839 17.6821C23.6511 17.2566 24.6493 16.7753 25.7812 16.5213C27.1594 16.2468 28.5673 16.1517 29.97 16.2383C31.4472 16.294 32.9244 16.3364 34.4016 16.3831L35.2929 16.4143C35.7875 16.4233 35.7875 14.975 35.7741 14.6163ZM12.6555 28.2967C12.6176 28.3636 11.8712 29.6915 12.5909 31.9062C10.9154 31.7057 8.743 29.5422 8.743 29.5422H8.68952L12.7959 24.6404C13.0324 24.3371 13.3487 24.1056 13.7094 23.972C14.0492 23.8584 14.4168 23.8584 14.7566 23.972L15.1309 24.1257L12.6644 28.2967H12.6555ZM17.945 25.115C18.1745 25.4378 18.3186 25.8133 18.3639 26.2068C18.4045 26.6938 18.3281 27.1835 18.1411 27.635C18.121 27.6818 18.101 27.7308 18.0787 27.7776C18.0787 27.7776 16.2695 31.1197 15.3493 32.568C14.4291 34.0162 13.3663 32.0555 13.3039 31.8683C13.086 31.2859 12.9714 30.6699 12.9652 30.048C12.9474 29.5674 13.0436 29.0895 13.246 28.6532L13.2838 28.5975L13.3886 28.446L13.5445 28.2232L13.7473 27.9269L13.9857 27.5771L14.2597 27.1827L14.5405 26.7705L14.8279 26.3494L15.1131 25.9327L15.3871 25.5317L15.6278 25.1774C15.7013 25.0682 15.7748 24.9546 15.8506 24.8521L15.9464 24.7095C15.9865 24.6471 16.0288 24.5847 16.0756 24.5246C16.1145 24.4905 16.16 24.4647 16.2093 24.4488C16.2935 24.4222 16.3818 24.4108 16.47 24.4154C16.7641 24.4154 17.2833 24.4956 17.4593 24.6382C17.6422 24.7742 17.8056 24.9346 17.945 25.115Z" stroke="#5E6A74" stroke-width="1.33685" stroke-miterlimit="10"></path></g><defs><clipPath id="clip0_6_261"><rect width="38" height="38.0468" fill="white"></rect></clipPath></defs></svg>