<?xml version="1.0" encoding="UTF-8"?>
<svg xmlns="http://www.w3.org/2000/svg" xmlns:xlink="http://www.w3.org/1999/xlink" width="17px" height="16px" viewBox="0 0 17 16" version="1.1">
<defs>
<clipPath id="clip1">
  <path d="M 0 0 L 16.84375 0 L 16.84375 16 L 0 16 Z M 0 0 "/>
</clipPath>
</defs>
<g id="surface1">
<g clip-path="url(#clip1)" clip-rule="nonzero">
<path style="fill:none;stroke-width:1.39445;stroke-linecap:butt;stroke-linejoin:miter;stroke:rgb(36.862745%,41.568627%,45.490196%);stroke-opacity:1;stroke-miterlimit:10;" d="M 26.626838 21.137689 L 31.645221 21.137689 L 31.645221 25.330071 L 26.112132 25.330071 L 25.340074 31.50878 L 20.983456 31.50878 L 21.746324 25.330071 L 16.075368 25.330071 L 15.303309 31.50878 L 10.965074 31.50878 L 11.746324 25.330071 L 6.691176 25.330071 L 6.691176 21.137689 L 12.251838 21.137689 L 13.060662 14.879879 L 7.996324 14.879879 L 7.996324 10.66113 L 13.566176 10.66113 L 14.329044 4.482421 L 18.658088 4.482421 L 17.895221 10.66113 L 23.575368 10.66113 L 24.347426 4.482421 L 28.676471 4.482421 L 27.886029 10.66113 L 32.913603 10.66113 L 32.959559 14.879879 L 27.398897 14.879879 Z M 22.251838 21.137689 L 23.069853 14.879879 L 17.389706 14.879879 L 16.5625 21.137689 Z M 22.251838 21.137689 " transform="matrix(0.425,0,0,0.444445,0,0)"/>
</g>
</g>
</svg>
