<?xml version="1.0" encoding="UTF-8"?>
<svg xmlns="http://www.w3.org/2000/svg" xmlns:xlink="http://www.w3.org/1999/xlink" width="17px" height="11px" viewBox="0 0 16 11" version="1.1">
<g id="surface1">
<path style=" stroke:none;fill-rule:nonzero;fill:rgb(47.843137%,47.843137%,47.843137%);fill-opacity:1;" d="M 1.988281 0 L 0.332031 0 C 0.148438 0 0 0.15625 0 0.347656 L 0 2.082031 C 0 2.273438 0.148438 2.429688 0.332031 2.429688 C 0.515625 2.429688 0.664062 2.273438 0.664062 2.082031 L 0.664062 0.695312 L 1.988281 0.695312 C 2.171875 0.695312 2.320312 0.539062 2.320312 0.347656 C 2.320312 0.15625 2.171875 0 1.988281 0 Z M 1.988281 0 "/>
<path style=" stroke:none;fill-rule:nonzero;fill:rgb(47.843137%,47.843137%,47.843137%);fill-opacity:1;" d="M 15.910156 0 L 14.253906 0 C 14.070312 0 13.921875 0.15625 13.921875 0.347656 C 13.921875 0.539062 14.070312 0.695312 14.253906 0.695312 L 15.578125 0.695312 L 15.578125 2.082031 C 15.578125 2.277344 15.726562 2.429688 15.910156 2.429688 C 16.09375 2.429688 16.242188 2.277344 16.242188 2.082031 L 16.242188 0.347656 C 16.242188 0.253906 16.207031 0.167969 16.144531 0.101562 C 16.082031 0.0351562 15.996094 0 15.910156 0 Z M 15.910156 0 "/>
<path style=" stroke:none;fill-rule:nonzero;fill:rgb(47.843137%,47.843137%,47.843137%);fill-opacity:1;" d="M 15.910156 8.679688 C 15.726562 8.679688 15.578125 8.835938 15.578125 9.027344 L 15.578125 10.417969 L 14.253906 10.417969 C 14.070312 10.417969 13.921875 10.574219 13.921875 10.765625 C 13.921875 10.957031 14.070312 11.113281 14.253906 11.113281 L 15.910156 11.113281 C 16.09375 11.113281 16.242188 10.957031 16.242188 10.765625 L 16.242188 9.027344 C 16.238281 8.835938 16.09375 8.679688 15.910156 8.679688 Z M 15.910156 8.679688 "/>
<path style=" stroke:none;fill-rule:nonzero;fill:rgb(47.843137%,47.843137%,47.843137%);fill-opacity:1;" d="M 1.988281 10.417969 L 0.664062 10.417969 L 0.664062 9.027344 C 0.664062 8.835938 0.515625 8.679688 0.332031 8.679688 C 0.148438 8.679688 0 8.835938 0 9.027344 L 0 10.761719 C 0 10.953125 0.148438 11.109375 0.332031 11.109375 L 1.988281 11.109375 C 2.171875 11.109375 2.320312 10.953125 2.320312 10.761719 C 2.320312 10.570312 2.171875 10.414062 1.988281 10.414062 Z M 1.988281 10.417969 "/>
<path style=" stroke:none;fill-rule:nonzero;fill:rgb(47.843137%,47.843137%,47.843137%);fill-opacity:1;" d="M 14.914062 9.375 L 14.914062 1.738281 C 14.914062 1.542969 14.765625 1.390625 14.585938 1.390625 C 14.402344 1.390625 14.253906 1.542969 14.253906 1.738281 L 14.253906 9.375 C 14.253906 9.566406 14.402344 9.722656 14.585938 9.722656 C 14.765625 9.722656 14.914062 9.566406 14.914062 9.375 Z M 14.914062 9.375 "/>
<path style=" stroke:none;fill-rule:nonzero;fill:rgb(47.843137%,47.843137%,47.843137%);fill-opacity:1;" d="M 12.96875 1.390625 C 12.785156 1.390625 12.636719 1.542969 12.636719 1.738281 L 12.636719 7.730469 C 12.636719 7.921875 12.785156 8.078125 12.96875 8.078125 C 13.152344 8.078125 13.300781 7.921875 13.300781 7.730469 L 13.300781 1.738281 C 13.300781 1.542969 13.152344 1.390625 12.96875 1.390625 Z M 12.96875 1.390625 "/>
<path style=" stroke:none;fill-rule:nonzero;fill:rgb(47.843137%,47.843137%,47.843137%);fill-opacity:1;" d="M 12.96875 8.945312 C 12.785156 8.945312 12.636719 9.101562 12.636719 9.292969 L 12.636719 9.375 C 12.636719 9.566406 12.785156 9.722656 12.96875 9.722656 C 13.152344 9.722656 13.300781 9.566406 13.300781 9.375 L 13.300781 9.292969 C 13.300781 9.101562 13.152344 8.945312 12.96875 8.945312 Z M 12.96875 8.945312 "/>
<path style=" stroke:none;fill-rule:nonzero;fill:rgb(47.843137%,47.843137%,47.843137%);fill-opacity:1;" d="M 11.351562 1.390625 C 11.167969 1.390625 11.019531 1.542969 11.019531 1.738281 L 11.019531 7.730469 C 11.019531 7.921875 11.167969 8.078125 11.351562 8.078125 C 11.535156 8.078125 11.683594 7.921875 11.683594 7.730469 L 11.683594 1.738281 C 11.683594 1.542969 11.535156 1.390625 11.351562 1.390625 Z M 11.351562 1.390625 "/>
<path style=" stroke:none;fill-rule:nonzero;fill:rgb(47.843137%,47.843137%,47.843137%);fill-opacity:1;" d="M 11.351562 8.945312 C 11.167969 8.945312 11.019531 9.101562 11.019531 9.292969 L 11.019531 9.375 C 11.019531 9.566406 11.167969 9.722656 11.351562 9.722656 C 11.535156 9.722656 11.683594 9.566406 11.683594 9.375 L 11.683594 9.292969 C 11.683594 9.101562 11.535156 8.945312 11.351562 8.945312 Z M 11.351562 8.945312 "/>
<path style=" stroke:none;fill-rule:nonzero;fill:rgb(47.843137%,47.843137%,47.843137%);fill-opacity:1;" d="M 9.738281 1.390625 C 9.554688 1.390625 9.40625 1.542969 9.40625 1.738281 L 9.40625 7.730469 C 9.40625 7.921875 9.554688 8.078125 9.738281 8.078125 C 9.917969 8.078125 10.066406 7.921875 10.066406 7.730469 L 10.066406 1.738281 C 10.066406 1.542969 9.917969 1.390625 9.738281 1.390625 Z M 9.738281 1.390625 "/>
<path style=" stroke:none;fill-rule:nonzero;fill:rgb(47.843137%,47.843137%,47.843137%);fill-opacity:1;" d="M 9.738281 8.945312 C 9.554688 8.945312 9.40625 9.101562 9.40625 9.292969 L 9.40625 9.375 C 9.40625 9.566406 9.554688 9.722656 9.738281 9.722656 C 9.917969 9.722656 10.066406 9.566406 10.066406 9.375 L 10.066406 9.292969 C 10.066406 9.101562 9.917969 8.945312 9.738281 8.945312 Z M 9.738281 8.945312 "/>
<path style=" stroke:none;fill-rule:nonzero;fill:rgb(47.843137%,47.843137%,47.843137%);fill-opacity:1;" d="M 8.121094 1.390625 C 7.9375 1.390625 7.789062 1.542969 7.789062 1.738281 L 7.789062 7.730469 C 7.789062 7.921875 7.9375 8.078125 8.121094 8.078125 C 8.304688 8.078125 8.453125 7.921875 8.453125 7.730469 L 8.453125 1.738281 C 8.453125 1.542969 8.304688 1.390625 8.121094 1.390625 Z M 8.121094 1.390625 "/>
<path style=" stroke:none;fill-rule:nonzero;fill:rgb(47.843137%,47.843137%,47.843137%);fill-opacity:1;" d="M 8.121094 8.945312 C 7.9375 8.945312 7.789062 9.101562 7.789062 9.292969 L 7.789062 9.375 C 7.789062 9.566406 7.9375 9.722656 8.121094 9.722656 C 8.304688 9.722656 8.453125 9.566406 8.453125 9.375 L 8.453125 9.292969 C 8.453125 9.101562 8.304688 8.945312 8.121094 8.945312 Z M 8.121094 8.945312 "/>
<path style=" stroke:none;fill-rule:nonzero;fill:rgb(47.843137%,47.843137%,47.843137%);fill-opacity:1;" d="M 6.503906 1.390625 C 6.320312 1.390625 6.171875 1.542969 6.171875 1.738281 L 6.171875 7.730469 C 6.171875 7.921875 6.320312 8.078125 6.503906 8.078125 C 6.6875 8.078125 6.835938 7.921875 6.835938 7.730469 L 6.835938 1.738281 C 6.835938 1.542969 6.6875 1.390625 6.503906 1.390625 Z M 6.503906 1.390625 "/>
<path style=" stroke:none;fill-rule:nonzero;fill:rgb(47.843137%,47.843137%,47.843137%);fill-opacity:1;" d="M 6.503906 8.945312 C 6.320312 8.945312 6.171875 9.101562 6.171875 9.292969 L 6.171875 9.375 C 6.171875 9.566406 6.320312 9.722656 6.503906 9.722656 C 6.6875 9.722656 6.835938 9.566406 6.835938 9.375 L 6.835938 9.292969 C 6.835938 9.101562 6.6875 8.945312 6.503906 8.945312 Z M 6.503906 8.945312 "/>
<path style=" stroke:none;fill-rule:nonzero;fill:rgb(47.843137%,47.843137%,47.843137%);fill-opacity:1;" d="M 4.890625 1.390625 C 4.707031 1.390625 4.558594 1.542969 4.558594 1.738281 L 4.558594 7.730469 C 4.558594 7.921875 4.707031 8.078125 4.890625 8.078125 C 5.070312 8.078125 5.21875 7.921875 5.21875 7.730469 L 5.21875 1.738281 C 5.21875 1.542969 5.070312 1.390625 4.890625 1.390625 Z M 4.890625 1.390625 "/>
<path style=" stroke:none;fill-rule:nonzero;fill:rgb(47.843137%,47.843137%,47.843137%);fill-opacity:1;" d="M 4.890625 8.945312 C 4.707031 8.945312 4.558594 9.101562 4.558594 9.292969 L 4.558594 9.375 C 4.558594 9.566406 4.707031 9.722656 4.890625 9.722656 C 5.070312 9.722656 5.21875 9.566406 5.21875 9.375 L 5.21875 9.292969 C 5.21875 9.101562 5.070312 8.945312 4.890625 8.945312 Z M 4.890625 8.945312 "/>
<path style=" stroke:none;fill-rule:nonzero;fill:rgb(47.843137%,47.843137%,47.843137%);fill-opacity:1;" d="M 3.273438 1.390625 C 3.089844 1.390625 2.941406 1.542969 2.941406 1.738281 L 2.941406 7.730469 C 2.941406 7.921875 3.089844 8.078125 3.273438 8.078125 C 3.457031 8.078125 3.605469 7.921875 3.605469 7.730469 L 3.605469 1.738281 C 3.605469 1.542969 3.457031 1.390625 3.273438 1.390625 Z M 3.273438 1.390625 "/>
<path style=" stroke:none;fill-rule:nonzero;fill:rgb(47.843137%,47.843137%,47.843137%);fill-opacity:1;" d="M 3.273438 8.945312 C 3.089844 8.945312 2.941406 9.101562 2.941406 9.292969 L 2.941406 9.375 C 2.941406 9.566406 3.089844 9.722656 3.273438 9.722656 C 3.457031 9.722656 3.605469 9.566406 3.605469 9.375 L 3.605469 9.292969 C 3.605469 9.101562 3.457031 8.945312 3.273438 8.945312 Z M 3.273438 8.945312 "/>
<path style=" stroke:none;fill-rule:nonzero;fill:rgb(47.843137%,47.843137%,47.843137%);fill-opacity:1;" d="M 1.988281 9.375 L 1.988281 1.738281 C 1.988281 1.542969 1.839844 1.390625 1.65625 1.390625 C 1.472656 1.390625 1.324219 1.542969 1.324219 1.738281 L 1.324219 9.375 C 1.324219 9.566406 1.472656 9.722656 1.65625 9.722656 C 1.839844 9.722656 1.988281 9.566406 1.988281 9.375 Z M 1.988281 9.375 "/>
</g>
</svg>
