
<svg xmlns="http://www.w3.org/2000/svg" width="32.482" height="21.213" viewBox="0 0 32.482 21.213">
<g id="bars-code" transform="translate(0 -88.816)">
  <path id="Tracé_1" data-name="Tracé 1" d="M3.977,88.816H.663A.663.663,0,0,0,0,89.479v3.314a.663.663,0,0,0,1.326,0V90.142H3.977a.663.663,0,1,0,0-1.326Z" fill="#7a7a7a"></path>
  <path id="Tracé_2" data-name="Tracé 2" d="M442.834,88.816H439.52a.663.663,0,1,0,0,1.326h2.652v2.652a.663.663,0,0,0,1.326,0V89.479A.663.663,0,0,0,442.834,88.816Z" transform="translate(-411.015)" fill="#7a7a7a"></path>
  <path id="Tracé_3" data-name="Tracé 3" d="M442.834,350.041a.663.663,0,0,0-.663.663v2.652H439.52a.663.663,0,1,0,0,1.326h3.314a.663.663,0,0,0,.663-.663V350.7A.663.663,0,0,0,442.834,350.041Z" transform="translate(-411.015 -244.652)" fill="#7a7a7a"></path>
  <path id="Tracé_4" data-name="Tracé 4" d="M3.977,353.355H1.326V350.7A.663.663,0,1,0,0,350.7v3.315a.663.663,0,0,0,.663.663H3.977a.663.663,0,1,0,0-1.326Z" transform="translate(0 -244.652)" fill="#7a7a7a"></path>
  <path id="Tracé_5" data-name="Tracé 5" d="M450.632,145.859V131.275a.663.663,0,0,0-1.326,0v14.584a.663.663,0,0,0,1.326,0Z" transform="translate(-420.801 -39.144)" fill="#7a7a7a"></path>
  <path id="Tracé_6" data-name="Tracé 6" d="M399.03,130.612a.663.663,0,0,0-.663.663v11.446a.663.663,0,0,0,1.326,0V131.275A.663.663,0,0,0,399.03,130.612Z" transform="translate(-373.094 -39.144)" fill="#7a7a7a"></path>
  <path id="Tracé_7" data-name="Tracé 7" d="M399.03,358.055a.663.663,0,0,0-.663.663v.154a.663.663,0,0,0,1.326,0v-.154A.663.663,0,0,0,399.03,358.055Z" transform="translate(-373.094 -252.158)" fill="#7a7a7a"></path>
  <path id="Tracé_8" data-name="Tracé 8" d="M348.092,130.612a.663.663,0,0,0-.663.663v11.446a.663.663,0,0,0,1.326,0V131.275A.663.663,0,0,0,348.092,130.612Z" transform="translate(-325.388 -39.144)" fill="#7a7a7a"></path>
  <path id="Tracé_9" data-name="Tracé 9" d="M348.092,358.055a.663.663,0,0,0-.663.663v.154a.663.663,0,1,0,1.326,0v-.154A.663.663,0,0,0,348.092,358.055Z" transform="translate(-325.388 -252.158)" fill="#7a7a7a"></path>
  <path id="Tracé_10" data-name="Tracé 10" d="M297.153,130.612a.663.663,0,0,0-.663.663v11.446a.663.663,0,0,0,1.326,0V131.275A.663.663,0,0,0,297.153,130.612Z" transform="translate(-277.68 -39.144)" fill="#7a7a7a"></path>
  <path id="Tracé_11" data-name="Tracé 11" d="M297.153,358.055a.663.663,0,0,0-.663.663v.154a.663.663,0,1,0,1.326,0v-.154A.663.663,0,0,0,297.153,358.055Z" transform="translate(-277.68 -252.158)" fill="#7a7a7a"></path>
  <path id="Tracé_12" data-name="Tracé 12" d="M246.214,130.612a.663.663,0,0,0-.663.663v11.446a.663.663,0,0,0,1.326,0V131.275A.663.663,0,0,0,246.214,130.612Z" transform="translate(-229.973 -39.144)" fill="#7a7a7a"></path>
  <path id="Tracé_13" data-name="Tracé 13" d="M246.214,358.055a.663.663,0,0,0-.663.663v.154a.663.663,0,1,0,1.326,0v-.154A.663.663,0,0,0,246.214,358.055Z" transform="translate(-229.973 -252.158)" fill="#7a7a7a"></path>
  <path id="Tracé_14" data-name="Tracé 14" d="M195.275,130.612a.663.663,0,0,0-.663.663v11.446a.663.663,0,0,0,1.326,0V131.275A.663.663,0,0,0,195.275,130.612Z" transform="translate(-182.266 -39.144)" fill="#7a7a7a"></path>
  <path id="Tracé_15" data-name="Tracé 15" d="M195.275,358.055a.663.663,0,0,0-.663.663v.154a.663.663,0,1,0,1.326,0v-.154A.663.663,0,0,0,195.275,358.055Z" transform="translate(-182.266 -252.158)" fill="#7a7a7a"></path>
  <path id="Tracé_16" data-name="Tracé 16" d="M144.336,130.612a.663.663,0,0,0-.663.663v11.446a.663.663,0,0,0,1.326,0V131.275A.663.663,0,0,0,144.336,130.612Z" transform="translate(-134.558 -39.144)" fill="#7a7a7a"></path>
  <path id="Tracé_17" data-name="Tracé 17" d="M144.336,358.055a.663.663,0,0,0-.663.663v.154a.663.663,0,1,0,1.326,0v-.154A.663.663,0,0,0,144.336,358.055Z" transform="translate(-134.558 -252.158)" fill="#7a7a7a"></path>
  <path id="Tracé_18" data-name="Tracé 18" d="M93.4,130.612a.663.663,0,0,0-.663.663v11.446a.663.663,0,0,0,1.326,0V131.275A.663.663,0,0,0,93.4,130.612Z" transform="translate(-86.852 -39.144)" fill="#7a7a7a"></path>
  <path id="Tracé_19" data-name="Tracé 19" d="M93.4,358.055a.663.663,0,0,0-.663.663v.154a.663.663,0,1,0,1.326,0v-.154A.663.663,0,0,0,93.4,358.055Z" transform="translate(-86.852 -252.158)" fill="#7a7a7a"></path>
  <path id="Tracé_20" data-name="Tracé 20" d="M43.122,145.859V131.275a.663.663,0,0,0-1.326,0v14.584a.663.663,0,0,0,1.326,0Z" transform="translate(-39.144 -39.144)" fill="#7a7a7a"></path>
</g>
</svg>