<svg xmlns="http://www.w3.org/2000/svg" width="27" height="27" viewBox="0 0 27 27" fill="none"><path fill-rule="evenodd" clip-rule="evenodd" d="M9 1.125C9.62132 1.125 10.125 1.62868 10.125 2.25V3.37757C10.4594 3.37499 10.8202 3.375 11.21 3.375H15.79C16.1798 3.375 16.5406 3.37499 16.875 3.37757V2.25C16.875 1.62868 17.3787 1.125 18 1.125C18.6213 1.125 19.125 1.62868 19.125 2.25V3.51517C19.484 3.5764 19.8236 3.66691 20.1526 3.80318C21.5309 4.37408 22.6259 5.46912 23.1968 6.84741C23.4343 7.42082 23.5328 8.02638 23.5796 8.71122C23.625 9.37723 23.625 10.1956 23.625 11.21V15.3039C23.625 16.5438 23.625 17.5437 23.5578 18.3531C23.4886 19.1865 23.3423 19.918 22.9917 20.593C22.458 21.6203 21.6203 22.458 20.593 22.9917C19.918 23.3423 19.1865 23.4886 18.3531 23.5578C17.5437 23.625 16.5438 23.625 15.3039 23.625H11.6961C10.4562 23.625 9.45626 23.625 8.64693 23.5578C7.81352 23.4886 7.08203 23.3423 6.40702 22.9917C5.37965 22.458 4.54197 21.6203 4.0083 20.593C3.65766 19.918 3.5114 19.1865 3.44219 18.3531C3.37498 17.5437 3.37499 16.5438 3.375 15.304V11.21C3.37499 10.1956 3.37499 9.37723 3.42043 8.71122C3.46715 8.02638 3.56566 7.42082 3.80318 6.84741C4.37408 5.46912 5.46912 4.37408 6.84741 3.80318C7.17639 3.66691 7.51595 3.5764 7.875 3.51517V2.25C7.875 1.62868 8.37868 1.125 9 1.125ZM7.875 5.8216C7.8153 5.84035 7.76023 5.86045 7.70844 5.88191C6.88147 6.22445 6.22445 6.88147 5.88191 7.70844C5.77688 7.962 5.70412 8.2941 5.66521 8.86438C5.64134 9.21427 5.63163 9.6227 5.62769 10.125H21.3723C21.3684 9.6227 21.3587 9.21427 21.3348 8.86438C21.2959 8.2941 21.2231 7.962 21.1181 7.70844C20.7756 6.88147 20.1185 6.22445 19.2916 5.88191C19.2398 5.86045 19.1847 5.84035 19.125 5.8216V6.75C19.125 7.37132 18.6213 7.875 18 7.875C17.3787 7.875 16.875 7.37132 16.875 6.75V5.62769C16.5441 5.6251 16.1725 5.625 15.75 5.625H11.25C10.8275 5.625 10.4559 5.6251 10.125 5.62769V6.75C10.125 7.37132 9.62132 7.875 9 7.875C8.37868 7.875 7.875 7.37132 7.875 6.75V5.8216ZM21.375 12.375H5.625V15.255C5.625 16.5552 5.6259 17.4616 5.68447 18.1669C5.74192 18.8586 5.84898 19.2555 6.00498 19.5558C6.32519 20.1722 6.82779 20.6748 7.44421 20.995C7.74453 21.151 8.14138 21.2581 8.83314 21.3155C9.53838 21.3741 10.4448 21.375 11.745 21.375H15.255C16.5552 21.375 17.4616 21.3741 18.1669 21.3155C18.8586 21.2581 19.2555 21.151 19.5558 20.995C20.1722 20.6748 20.6748 20.1722 20.995 19.5558C21.151 19.2555 21.2581 18.8586 21.3155 18.1669C21.3741 17.4616 21.375 16.5552 21.375 15.255V12.375ZM14.625 18C14.625 17.3787 15.1287 16.875 15.75 16.875H18C18.6213 16.875 19.125 17.3787 19.125 18C19.125 18.6213 18.6213 19.125 18 19.125H15.75C15.1287 19.125 14.625 18.6213 14.625 18Z" fill="#565656"></path></svg>