<svg xmlns="http://www.w3.org/2000/svg" width="30" height="30" viewBox="0 0 30 30" fill="none"><g clip-path="url(#clip0_34_130)"><path d="M12.8744 6.78155C10.8923 7.32995 9.50775 8.65403 9.50775 10.0001C9.50775 11.3459 10.8923 12.67 12.8744 13.2191C12.9179 13.231 12.9627 13.2369 13.0078 13.2369C13.2838 13.2369 13.5079 13.0131 13.5079 12.7371V7.26312C13.5077 7.10679 13.4347 6.95985 13.3104 6.86532C13.1861 6.77079 13.0247 6.73989 12.8744 6.78155ZM12.5077 12.0424C11.1919 11.5155 10.5077 10.6595 10.5077 10.0001C10.5077 9.34045 11.1919 8.48443 12.5077 7.95755V12.0424Z" fill="#565656"></path><path d="M16.0078 0H14.0078C13.1795 0 12.5077 0.671539 12.5077 1.50009V2.75757C8.36472 3.61656 5.50781 6.54991 5.50781 10.0001C5.50781 13.45 8.36472 16.3836 12.5077 17.2426V22.0425C11.3477 21.5739 10.6899 20.8479 10.5423 20.2675C10.4336 19.82 10.0344 19.5037 9.5739 19.5H6.53481C6.25122 19.4998 5.98068 19.6198 5.79025 19.8299C5.59982 20.04 5.5069 20.3208 5.53482 20.603C5.84679 23.8094 8.62633 26.4375 12.5077 27.2424V28.4999C12.5077 29.3285 13.1795 30 14.0078 30H16.0078C16.8363 30 17.5079 29.3285 17.5079 28.4999V27.2424C21.6508 26.3834 24.5078 23.4501 24.5078 19.9999C24.5078 16.55 21.6508 13.6164 17.5079 12.7574V7.95753C18.6678 8.42606 19.3259 9.15207 19.4733 9.73251C19.5822 10.18 19.9812 10.4963 20.4419 10.5H23.4808C23.7643 10.5002 24.0349 10.3802 24.2253 10.1701C24.4157 9.96002 24.5087 9.67918 24.4807 9.39697C24.1688 6.19057 21.3892 3.56255 17.5079 2.75757V1.50009C17.5079 0.671539 16.8363 0 16.0078 0ZM23.4808 9.49997L20.4424 9.48761C20.1423 8.29903 18.8759 7.26151 17.1423 6.78154C16.9917 6.73943 16.8301 6.77032 16.7056 6.86485C16.5809 6.95938 16.5079 7.10655 16.5079 7.26311V13.1719C16.5081 13.4157 16.6837 13.6235 16.9238 13.6645C20.8003 14.325 23.5078 16.9304 23.5078 19.9999C23.5078 23.0695 20.8003 25.675 16.9238 26.3356C16.6837 26.3763 16.5081 26.5844 16.5079 26.8279V28.4999C16.5079 28.7762 16.284 29 16.0078 29H14.0078C13.7318 29 13.5079 28.7762 13.5079 28.4999V26.8279C13.5077 26.5844 13.3319 26.3763 13.0918 26.3356C9.44481 25.714 6.80786 23.3716 6.53481 20.5L9.57321 20.5124C9.87328 21.701 11.1399 22.7385 12.8732 23.2189C13.0241 23.261 13.1857 23.2301 13.3102 23.1356C13.4349 23.0408 13.5079 22.8934 13.5079 22.7369V16.8281C13.5077 16.5843 13.3319 16.3765 13.0918 16.3355C9.21524 15.675 6.5078 13.0696 6.5078 10.0001C6.5078 6.93054 9.21524 4.32495 13.0918 3.6644C13.3319 3.62366 13.5077 3.4156 13.5079 3.17207V1.50009C13.5079 1.22383 13.7318 0.999985 14.0078 0.999985H16.0078C16.284 0.999985 16.5079 1.22383 16.5079 1.50009V3.17207C16.5081 3.4156 16.6837 3.62366 16.9238 3.6644C20.5708 4.28604 23.2077 6.62842 23.4808 9.49997Z" fill="#565656"></path><path d="M16.5079 22.7369C16.5079 23.0131 16.7317 23.237 17.0078 23.237C17.0528 23.237 17.0977 23.2308 17.1414 23.2189C19.1233 22.6701 20.5078 21.346 20.5078 19.9999C20.5078 18.6541 19.1233 17.33 17.1414 16.7814C16.9908 16.7397 16.8295 16.7709 16.7052 16.8654C16.5809 16.9597 16.5079 17.1069 16.5079 17.2629V22.7369ZM17.5079 17.9576C18.8237 18.4845 19.5078 19.3405 19.5078 19.9999C19.5078 20.6596 18.8237 21.5156 17.5079 22.0425V17.9576Z" fill="#565656"></path></g><defs><clipPath id="clip0_34_130"><rect width="30" height="30" fill="white"></rect></clipPath></defs></svg>