<svg xmlns="http://www.w3.org/2000/svg" width="29" height="31" viewBox="0 0 29 31" fill="none"><path d="M12.0619 17.4228C12.8751 18.3459 13.7499 19.2018 14.6792 19.9836C15.0893 20.3268 15.5864 20.5244 16.1027 20.5496C16.6191 20.5748 17.1301 20.4264 17.5667 20.1244L18.1885 19.702C18.6375 19.367 19.1723 19.1953 19.7161 19.2114C20.2598 19.2275 20.7849 19.4305 21.2167 19.7915L24.1274 22.3523C24.2681 22.4727 24.3838 22.6243 24.467 22.797C24.5501 22.9697 24.5989 23.1596 24.6099 23.3543C24.621 23.549 24.5941 23.7441 24.5311 23.9266C24.4682 24.1092 24.3708 24.2752 24.2449 24.4137V24.4137C23.1238 25.6399 21.6794 26.4533 20.1138 26.7403C18.5482 27.0273 16.9396 26.7734 15.5127 26.0142C13.092 24.714 10.8866 22.9832 8.987 20.8927C7.0703 18.8257 5.48355 16.4239 4.29226 13.7865C3.59741 12.2284 3.36413 10.4731 3.6249 8.76384C3.88568 7.05463 4.62759 5.47631 5.74762 4.24773V4.24773C5.87379 4.10965 6.02514 4.00218 6.19205 3.93248C6.35896 3.86278 6.5377 3.83243 6.71614 3.84331C6.89458 3.8542 7.06887 3.90607 7.22762 3.99563C7.38637 4.08518 7.52581 4.21036 7.63709 4.36292L9.98446 7.55106C10.309 7.99954 10.4992 8.54632 10.5286 9.11684C10.558 9.68736 10.4254 10.2539 10.1489 10.7393L9.69104 11.5203C9.41581 11.9965 9.2798 12.5526 9.30076 13.1151C9.32172 13.6775 9.49877 14.2197 9.80852 14.67C10.5101 15.6822 11.2748 16.6406 12.0971 17.5381L12.0619 17.4228Z" stroke="#565656" stroke-width="2" stroke-linejoin="round"></path></svg>