<svg xmlns="http://www.w3.org/2000/svg" width="50" height="34" viewBox="0 0 50 34" fill="none"><path d="M46.0572 19.421L48.3388 16.0882C48.4442 15.9343 48.5 15.7792 48.5 15.6503C48.5 15.4011 48.3 15.247 47.9652 15.247L43.034 15.247C42.6996 15.247 42.5 15.4009 42.5 15.6496C42.5 15.7787 42.5559 15.9313 42.6616 16.0855L44.9431 19.4198C45.0901 19.6343 45.2879 19.753 45.5003 19.753C45.7125 19.7531 45.9102 19.6357 46.0572 19.421Z" fill="white"></path><g clip-path="url(#clip0_48_306)"><path d="M34.1609 5.86209H2.76552C1.23812 5.86209 0 7.00209 0 8.40844V25.5916C0 26.9979 1.23812 28.138 2.76552 28.138H34.1609C35.6883 28.138 36.9265 26.998 36.9265 25.5916V8.40844C36.9265 7.00209 35.6883 5.86209 34.1609 5.86209Z" fill="#F5F5F5"></path><path d="M0.1521 7.57564H36.7743C36.3995 6.57842 35.3714 5.86209 34.1609 5.86209H2.76551C1.55502 5.86209 0.526918 6.57842 0.1521 7.57564Z" fill="#FF4B55"></path><path d="M36.9265 12.7162H0V14.4296H36.9265V12.7162Z" fill="#FF4B55"></path><path d="M36.9265 9.28891H0V11.0024H36.9265V9.28891Z" fill="#FF4B55"></path><path d="M0 17.2706C0 17.5943 0.285098 17.8568 0.636693 17.8568H36.9265V16.1432H0V17.2706Z" fill="#FF4B55"></path><path d="M36.9265 22.9978H0V24.7114H36.9265V22.9978Z" fill="#FF4B55"></path><path d="M36.7743 26.4244H0.1521C0.526918 27.4216 1.55509 28.1379 2.76551 28.1379H34.1609C35.3714 28.1379 36.3995 27.4216 36.7743 26.4244Z" fill="#FF4B55"></path><path d="M36.9265 19.5706H0V21.2841H36.9265V19.5706Z" fill="#FF4B55"></path><path d="M0.636693 17.8568H16.5533C16.9049 17.8568 17.19 17.5943 17.19 17.2705V6.44823C17.19 6.12444 16.9049 5.862 16.5533 5.862H2.76552C1.23812 5.86207 0 7.00206 0 8.40841V17.2705C0 17.5943 0.285098 17.8568 0.636693 17.8568Z" fill="#6C12FF"></path><path d="M1.78786 7.20765L1.92878 7.59679L2.37428 7.59992C2.43198 7.60038 2.45585 7.66811 2.40948 7.69966L2.0511 7.9433L2.18554 8.33437C2.20299 8.38497 2.14032 8.42694 2.09337 8.39599L1.73095 8.15753L1.36854 8.39606C1.32159 8.42701 1.25906 8.38504 1.27637 8.33443L1.4108 7.94337L1.05243 7.69972C1.00605 7.66811 1.02993 7.60038 1.08762 7.59998L1.53312 7.59686L1.67405 7.20772C1.69222 7.15725 1.76954 7.15725 1.78786 7.20765Z" fill="#F5F5F5"></path><path d="M1.78786 9.24316L1.92878 9.6323L2.37428 9.63542C2.43198 9.63588 2.45585 9.70355 2.40948 9.73516L2.0511 9.97887L2.18554 10.3699C2.20299 10.4205 2.14032 10.4625 2.09337 10.4316L1.73095 10.1931L1.36854 10.4316C1.32159 10.4625 1.25906 10.4206 1.27637 10.37L1.4108 9.97894L1.05243 9.73523C1.00605 9.70362 1.02993 9.63595 1.08762 9.63549L1.53312 9.63236L1.67405 9.24322C1.69222 9.19282 1.76954 9.19282 1.78786 9.24316Z" fill="#F5F5F5"></path><path d="M1.78786 11.2789L1.92878 11.668L2.37428 11.6711C2.43198 11.6716 2.45585 11.7392 2.40948 11.7709L2.0511 12.0146L2.18554 12.4056C2.20299 12.4562 2.14032 12.4982 2.09337 12.4673L1.73095 12.2288L1.36854 12.4673C1.32159 12.4982 1.25906 12.4564 1.27637 12.4057L1.4108 12.0146L1.05243 11.7709C1.00605 11.7393 1.02993 11.6716 1.08762 11.6712L1.53312 11.6681L1.67405 11.2789C1.69222 11.2284 1.76954 11.2284 1.78786 11.2789Z" fill="#F5F5F5"></path><path d="M1.78786 13.3145L1.92878 13.7036L2.37428 13.7067C2.43198 13.7072 2.45585 13.7749 2.40948 13.8065L2.0511 14.0502L2.18554 14.4412C2.20299 14.4918 2.14032 14.5338 2.09337 14.5029L1.73095 14.2644L1.36854 14.5029C1.32159 14.5338 1.25906 14.4919 1.27637 14.4413L1.4108 14.0502L1.05243 13.8065C1.00605 13.7751 1.02993 13.7073 1.08762 13.7068L1.53312 13.7037L1.67405 13.3145C1.69222 13.2641 1.76954 13.2641 1.78786 13.3145Z" fill="#F5F5F5"></path><path d="M1.78786 15.3501L1.92878 15.7392L2.37428 15.7424C2.43198 15.7428 2.45585 15.8105 2.40948 15.8421L2.0511 16.0858L2.18554 16.4769C2.20299 16.5275 2.14032 16.5694 2.09337 16.5385L1.73095 16.3L1.36854 16.5386C1.32159 16.5694 1.25906 16.5275 1.27637 16.4769L1.4108 16.0859L1.05243 15.8422C1.00605 15.8106 1.02993 15.7429 1.08762 15.7424L1.53312 15.7393L1.67405 15.3502C1.69222 15.2998 1.76954 15.2998 1.78786 15.3501Z" fill="#F5F5F5"></path><path d="M3.50386 8.20557L3.64479 8.59471L4.09028 8.59783C4.14798 8.59829 4.17185 8.66603 4.12548 8.69757L3.76711 8.94128L3.90154 9.33235C3.91899 9.38295 3.85632 9.42492 3.80937 9.39397L3.44696 9.15544L3.08454 9.39397C3.03759 9.42485 2.97506 9.38295 2.99237 9.33235L3.12681 8.94128L2.76843 8.69757C2.72206 8.66596 2.74593 8.59829 2.80363 8.59783L3.24913 8.59471L3.39005 8.20557C3.40823 8.15523 3.48561 8.15523 3.50386 8.20557Z" fill="#F5F5F5"></path><path d="M3.50386 10.2412L3.64479 10.6304L4.09028 10.6335C4.14798 10.634 4.17185 10.7017 4.12548 10.7332L3.76711 10.9769L3.90154 11.368C3.91899 11.4186 3.85632 11.4606 3.80937 11.4296L3.44696 11.1911L3.08454 11.4296C3.03759 11.4605 2.97506 11.4187 2.99237 11.368L3.12681 10.9769L2.76843 10.7332C2.72206 10.7018 2.74593 10.634 2.80363 10.6335L3.24913 10.6304L3.39005 10.2412C3.40823 10.1908 3.48561 10.1908 3.50386 10.2412Z" fill="#F5F5F5"></path><path d="M3.50386 12.2769L3.64479 12.666L4.09028 12.6691C4.14798 12.6696 4.17185 12.7373 4.12548 12.7689L3.76711 13.0126L3.90154 13.4037C3.91899 13.4543 3.85632 13.4962 3.80937 13.4653L3.44696 13.2268L3.08454 13.4653C3.03759 13.4962 2.97506 13.4543 2.99237 13.4037L3.12681 13.0126L2.76843 12.7689C2.72206 12.7373 2.74593 12.6696 2.80363 12.6691L3.24913 12.666L3.39005 12.2769C3.40823 12.2265 3.48561 12.2265 3.50386 12.2769Z" fill="#F5F5F5"></path><path d="M3.50386 14.3125L3.64479 14.7016L4.09028 14.7047C4.14798 14.7052 4.17185 14.7729 4.12548 14.8045L3.76711 15.0482L3.90154 15.4393C3.91899 15.4899 3.85632 15.5318 3.80937 15.5009L3.44696 15.2623L3.08454 15.5009C3.03759 15.5318 2.97506 15.4899 2.99237 15.4393L3.12681 15.0482L2.76843 14.8045C2.72206 14.7729 2.74593 14.7052 2.80363 14.7047L3.24913 14.7016L3.39005 14.3125C3.40823 14.2621 3.48561 14.2621 3.50386 14.3125Z" fill="#F5F5F5"></path><path d="M5.21986 7.20754L5.36079 7.59668L5.80629 7.5998C5.86398 7.60027 5.88786 7.668 5.84148 7.69954L5.48311 7.94319L5.61754 8.33426C5.635 8.38486 5.57232 8.42683 5.52537 8.39588L5.16296 8.15735L4.80055 8.39588C4.75359 8.42683 4.69107 8.38486 4.70837 8.33426L4.84281 7.94319L4.48444 7.69954C4.43806 7.66794 4.46193 7.6002 4.51963 7.5998L4.96513 7.59668L5.10605 7.20754C5.12423 7.15714 5.20162 7.15714 5.21986 7.20754Z" fill="#F5F5F5"></path><path d="M5.21986 9.24317L5.36079 9.63231L5.80629 9.63543C5.86398 9.63589 5.88786 9.70356 5.84148 9.73517L5.48311 9.97888L5.61754 10.3699C5.635 10.4205 5.57232 10.4625 5.52537 10.4316L5.16296 10.193L4.80055 10.4316C4.75359 10.4625 4.69107 10.4205 4.70837 10.3699L4.84281 9.97888L4.48444 9.73517C4.43806 9.70356 4.46193 9.63589 4.51963 9.63543L4.96513 9.63231L5.10605 9.24317C5.12423 9.19283 5.20162 9.19283 5.21986 9.24317Z" fill="#F5F5F5"></path><path d="M5.21986 11.2788L5.36079 11.668L5.80629 11.6711C5.86398 11.6716 5.88786 11.7392 5.84148 11.7708L5.48311 12.0145L5.61754 12.4056C5.635 12.4562 5.57232 12.4982 5.52537 12.4672L5.16296 12.2287L4.80055 12.4672C4.75359 12.4981 4.69107 12.4563 4.70837 12.4056L4.84281 12.0145L4.48444 11.7708C4.43806 11.7392 4.46193 11.6716 4.51963 11.6711L4.96513 11.668L5.10605 11.2788C5.12423 11.2284 5.20162 11.2284 5.21986 11.2788Z" fill="#F5F5F5"></path><path d="M5.21986 13.3145L5.36079 13.7036L5.80629 13.7067C5.86398 13.7072 5.88786 13.7749 5.84148 13.8065L5.48311 14.0502L5.61754 14.4413C5.635 14.4919 5.57232 14.5338 5.52537 14.5029L5.16296 14.2643L4.80055 14.5029C4.75359 14.5338 4.69107 14.4919 4.70837 14.4413L4.84281 14.0502L4.48444 13.8065C4.43806 13.775 4.46193 13.7072 4.51963 13.7067L4.96513 13.7036L5.10605 13.3145C5.12423 13.2641 5.20162 13.2641 5.21986 13.3145Z" fill="#F5F5F5"></path><path d="M5.21986 15.3501L5.36079 15.7392L5.80629 15.7423C5.86398 15.7428 5.88786 15.8105 5.84148 15.8421L5.48311 16.0858L5.61754 16.4768C5.635 16.5275 5.57232 16.5694 5.52537 16.5385L5.16296 16.2999L4.80055 16.5385C4.75359 16.5694 4.69107 16.5275 4.70837 16.4768L4.84281 16.0858L4.48444 15.8421C4.43806 15.8105 4.46193 15.7428 4.51963 15.7423L4.96513 15.7392L5.10605 15.3501C5.12423 15.2997 5.20162 15.2997 5.21986 15.3501Z" fill="#F5F5F5"></path><path d="M6.93593 8.20557L7.07685 8.59471L7.52235 8.59783C7.58005 8.59829 7.60392 8.66603 7.55755 8.69757L7.19917 8.94128L7.33361 9.33235C7.35106 9.38295 7.28839 9.42492 7.24144 9.39397L6.87902 9.15544L6.51661 9.39397C6.46966 9.42485 6.40713 9.38295 6.42444 9.33235L6.55887 8.94128L6.2005 8.69757C6.15413 8.66596 6.178 8.59829 6.2357 8.59783L6.68119 8.59471L6.82212 8.20557C6.84022 8.15523 6.91768 8.15523 6.93593 8.20557Z" fill="#F5F5F5"></path><path d="M6.93593 10.2412L7.07685 10.6304L7.52235 10.6335C7.58005 10.634 7.60392 10.7017 7.55755 10.7332L7.19917 10.9769L7.33361 11.368C7.35106 11.4186 7.28839 11.4606 7.24144 11.4296L6.87902 11.1911L6.51661 11.4296C6.46966 11.4605 6.40713 11.4187 6.42444 11.368L6.55887 10.9769L6.2005 10.7332C6.15413 10.7018 6.178 10.634 6.2357 10.6335L6.68119 10.6304L6.82212 10.2412C6.84022 10.1908 6.91768 10.1908 6.93593 10.2412Z" fill="#F5F5F5"></path><path d="M6.93593 12.2769L7.07685 12.666L7.52235 12.6691C7.58005 12.6696 7.60392 12.7373 7.55755 12.7689L7.19917 13.0126L7.33361 13.4037C7.35106 13.4543 7.28839 13.4962 7.24144 13.4653L6.87902 13.2268L6.51661 13.4653C6.46966 13.4962 6.40713 13.4543 6.42444 13.4037L6.55887 13.0126L6.2005 12.7689C6.15413 12.7373 6.178 12.6696 6.2357 12.6691L6.68119 12.666L6.82212 12.2769C6.84022 12.2265 6.91768 12.2265 6.93593 12.2769Z" fill="#F5F5F5"></path><path d="M6.93593 14.3125L7.07685 14.7016L7.52235 14.7047C7.58005 14.7052 7.60392 14.7729 7.55755 14.8045L7.19917 15.0482L7.33361 15.4393C7.35106 15.4899 7.28839 15.5318 7.24144 15.5009L6.87902 15.2623L6.51661 15.5009C6.46966 15.5318 6.40713 15.4899 6.42444 15.4393L6.55887 15.0482L6.2005 14.8045C6.15413 14.7729 6.178 14.7052 6.2357 14.7047L6.68119 14.7016L6.82212 14.3125C6.84022 14.2621 6.91768 14.2621 6.93593 14.3125Z" fill="#F5F5F5"></path><path d="M8.65194 7.20753L8.79287 7.59667L9.23837 7.59979C9.29606 7.60026 9.31994 7.66799 9.27356 7.69954L8.91519 7.94318L9.04962 8.33425C9.06708 8.38485 9.0044 8.42682 8.95745 8.39587L8.59497 8.15741L8.23255 8.39594C8.1856 8.42688 8.12307 8.38491 8.14038 8.33431L8.27482 7.94325L7.91644 7.6996C7.87007 7.66799 7.89394 7.60026 7.95164 7.59986L8.39714 7.59674L8.53806 7.2076C8.55631 7.15713 8.6337 7.15713 8.65194 7.20753Z" fill="#F5F5F5"></path><path d="M8.65194 9.24317L8.79287 9.63231L9.23837 9.63543C9.29606 9.63589 9.31994 9.70356 9.27356 9.73517L8.91519 9.97888L9.04962 10.3699C9.06708 10.4205 9.0044 10.4625 8.95745 10.4316L8.59497 10.193L8.23255 10.4316C8.1856 10.4625 8.12307 10.4205 8.14038 10.3699L8.27482 9.97888L7.91644 9.73517C7.87007 9.70356 7.89394 9.63589 7.95164 9.63543L8.39714 9.63231L8.53806 9.24317C8.55631 9.19283 8.6337 9.19283 8.65194 9.24317Z" fill="#F5F5F5"></path><path d="M8.65194 11.2788L8.79287 11.668L9.23837 11.6711C9.29606 11.6716 9.31994 11.7392 9.27356 11.7708L8.91519 12.0146L9.04962 12.4056C9.06708 12.4562 9.0044 12.4982 8.95745 12.4672L8.59497 12.2286L8.23255 12.4672C8.1856 12.4981 8.12307 12.4562 8.14038 12.4056L8.27482 12.0145L7.91644 11.7708C7.87007 11.7392 7.89394 11.6715 7.95164 11.671L8.39714 11.6679L8.53806 11.2788C8.55631 11.2284 8.6337 11.2284 8.65194 11.2788Z" fill="#F5F5F5"></path><path d="M8.65194 13.3145L8.79287 13.7036L9.23837 13.7067C9.29606 13.7072 9.31994 13.7749 9.27356 13.8065L8.91519 14.0502L9.04962 14.4413C9.06708 14.4919 9.0044 14.5338 8.95745 14.5029L8.59497 14.2643L8.23255 14.5029C8.1856 14.5338 8.12307 14.4919 8.14038 14.4413L8.27482 14.0502L7.91644 13.8065C7.87007 13.775 7.89394 13.7072 7.95164 13.7067L8.39714 13.7036L8.53806 13.3145C8.55631 13.2641 8.6337 13.2641 8.65194 13.3145Z" fill="#F5F5F5"></path><path d="M8.65194 15.3501L8.79287 15.7392L9.23837 15.7423C9.29606 15.7428 9.31994 15.8105 9.27356 15.8421L8.91519 16.0858L9.04962 16.4768C9.06708 16.5275 9.0044 16.5694 8.95745 16.5385L8.59497 16.2999L8.23255 16.5385C8.1856 16.5694 8.12307 16.5275 8.14038 16.4768L8.27482 16.0858L7.91644 15.8421C7.87007 15.8105 7.89394 15.7428 7.95164 15.7423L8.39714 15.7392L8.53806 15.3501C8.55631 15.2997 8.6337 15.2997 8.65194 15.3501Z" fill="#F5F5F5"></path><path d="M10.3679 8.20557L10.5089 8.59471L10.9544 8.59783C11.0121 8.59829 11.0359 8.66603 10.9896 8.69757L10.6312 8.94128L10.7656 9.33235C10.7831 9.38295 10.7204 9.42492 10.6734 9.39397L10.311 9.15544L9.94862 9.39397C9.90167 9.42485 9.83914 9.38295 9.85645 9.33235L9.99088 8.94128L9.63251 8.69757C9.58613 8.66596 9.61001 8.59829 9.6677 8.59783L10.1132 8.59471L10.2541 8.20557C10.2724 8.15523 10.3497 8.15523 10.3679 8.20557Z" fill="#F5F5F5"></path><path d="M10.3679 10.2412L10.5089 10.6304L10.9544 10.6335C11.0121 10.634 11.0359 10.7017 10.9896 10.7332L10.6312 10.9769L10.7656 11.368C10.7831 11.4186 10.7204 11.4606 10.6734 11.4296L10.311 11.1911L9.94862 11.4296C9.90167 11.4605 9.83914 11.4187 9.85645 11.368L9.99088 10.9769L9.63251 10.7332C9.58613 10.7018 9.61001 10.634 9.6677 10.6335L10.1132 10.6304L10.2541 10.2412C10.2724 10.1908 10.3497 10.1908 10.3679 10.2412Z" fill="#F5F5F5"></path><path d="M10.3679 12.2769L10.5089 12.666L10.9544 12.6691C11.0121 12.6696 11.0359 12.7373 10.9896 12.7689L10.6312 13.0126L10.7656 13.4037C10.7831 13.4543 10.7204 13.4962 10.6734 13.4653L10.311 13.2268L9.94862 13.4653C9.90167 13.4962 9.83914 13.4543 9.85645 13.4037L9.99088 13.0126L9.63251 12.7689C9.58613 12.7373 9.61001 12.6696 9.6677 12.6691L10.1132 12.666L10.2541 12.2769C10.2724 12.2265 10.3497 12.2265 10.3679 12.2769Z" fill="#F5F5F5"></path><path d="M10.3679 14.3125L10.5089 14.7016L10.9544 14.7047C11.0121 14.7052 11.0359 14.7729 10.9896 14.8045L10.6312 15.0482L10.7656 15.4393C10.7831 15.4899 10.7204 15.5318 10.6734 15.5009L10.311 15.2623L9.94862 15.5009C9.90167 15.5318 9.83914 15.4899 9.85645 15.4393L9.99088 15.0482L9.63251 14.8045C9.58613 14.7729 9.61001 14.7052 9.6677 14.7047L10.1132 14.7016L10.2541 14.3125C10.2724 14.2621 10.3497 14.2621 10.3679 14.3125Z" fill="#F5F5F5"></path><path d="M12.084 7.20754L12.2249 7.59668L12.6704 7.5998C12.7281 7.60027 12.752 7.668 12.7056 7.69954L12.3472 7.94319L12.4817 8.33426C12.4991 8.38486 12.4365 8.42683 12.3895 8.39588L12.0271 8.15735L11.6647 8.39588C11.6177 8.42683 11.5552 8.38486 11.5725 8.33426L11.7069 7.94319L11.3486 7.69954C11.3022 7.66794 11.3261 7.6002 11.3838 7.5998L11.8293 7.59668L11.9702 7.20754C11.9883 7.15714 12.0658 7.15714 12.084 7.20754Z" fill="#F5F5F5"></path><path d="M12.084 9.24317L12.2249 9.63231L12.6704 9.63543C12.7281 9.63589 12.752 9.70356 12.7056 9.73517L12.3472 9.97888L12.4817 10.3699C12.4991 10.4205 12.4365 10.4625 12.3895 10.4316L12.0271 10.193L11.6647 10.4316C11.6177 10.4625 11.5552 10.4205 11.5725 10.3699L11.7069 9.97888L11.3486 9.73517C11.3022 9.70356 11.3261 9.63589 11.3838 9.63543L11.8293 9.63231L11.9702 9.24317C11.9883 9.19283 12.0658 9.19283 12.084 9.24317Z" fill="#F5F5F5"></path><path d="M12.084 11.2788L12.2249 11.668L12.6704 11.6711C12.7281 11.6716 12.752 11.7392 12.7056 11.7708L12.3472 12.0145L12.4817 12.4056C12.4991 12.4562 12.4365 12.4982 12.3895 12.4672L12.0271 12.2287L11.6647 12.4672C11.6177 12.4981 11.5552 12.4563 11.5725 12.4056L11.7069 12.0145L11.3486 11.7708C11.3022 11.7392 11.3261 11.6716 11.3838 11.6711L11.8293 11.668L11.9702 11.2788C11.9883 11.2284 12.0658 11.2284 12.084 11.2788Z" fill="#F5F5F5"></path><path d="M12.084 13.3145L12.2249 13.7036L12.6704 13.7067C12.7281 13.7072 12.752 13.7749 12.7056 13.8065L12.3472 14.0502L12.4817 14.4413C12.4991 14.4919 12.4365 14.5338 12.3895 14.5029L12.0271 14.2643L11.6647 14.5029C11.6177 14.5338 11.5552 14.4919 11.5725 14.4413L11.7069 14.0502L11.3486 13.8065C11.3022 13.775 11.3261 13.7072 11.3838 13.7067L11.8293 13.7036L11.9702 13.3145C11.9883 13.2641 12.0658 13.2641 12.084 13.3145Z" fill="#F5F5F5"></path><path d="M12.084 15.3501L12.2249 15.7392L12.6704 15.7423C12.7281 15.7428 12.752 15.8105 12.7056 15.8421L12.3472 16.0858L12.4817 16.4768C12.4991 16.5275 12.4365 16.5694 12.3895 16.5385L12.0271 16.2999L11.6647 16.5385C11.6177 16.5694 11.5552 16.5275 11.5725 16.4768L11.7069 16.0858L11.3486 15.8421C11.3022 15.8105 11.3261 15.7428 11.3838 15.7423L11.8293 15.7392L11.9702 15.3501C11.9883 15.2997 12.0658 15.2997 12.084 15.3501Z" fill="#F5F5F5"></path><path d="M13.8 8.20557L13.9409 8.59471L14.3864 8.59783C14.4441 8.59829 14.468 8.66603 14.4216 8.69757L14.0632 8.94128L14.1977 9.33235C14.2151 9.38295 14.1525 9.42492 14.1055 9.39397L13.7431 9.15544L13.3807 9.39397C13.3337 9.42485 13.2712 9.38295 13.2885 9.33235L13.4229 8.94128L13.0646 8.69757C13.0182 8.66596 13.0421 8.59829 13.0998 8.59783L13.5453 8.59471L13.6862 8.20557C13.7044 8.15523 13.7818 8.15523 13.8 8.20557Z" fill="#F5F5F5"></path><path d="M13.8 10.2412L13.9409 10.6304L14.3864 10.6335C14.4441 10.634 14.468 10.7017 14.4216 10.7332L14.0632 10.9769L14.1977 11.368C14.2151 11.4186 14.1525 11.4606 14.1055 11.4296L13.7431 11.1911L13.3807 11.4296C13.3337 11.4605 13.2712 11.4187 13.2885 11.368L13.4229 10.9769L13.0646 10.7332C13.0182 10.7018 13.0421 10.634 13.0998 10.6335L13.5453 10.6304L13.6862 10.2412C13.7044 10.1908 13.7818 10.1908 13.8 10.2412Z" fill="#F5F5F5"></path><path d="M13.8 12.2769L13.9409 12.666L14.3864 12.6691C14.4441 12.6696 14.468 12.7373 14.4216 12.7689L14.0632 13.0126L14.1977 13.4037C14.2151 13.4543 14.1525 13.4962 14.1055 13.4653L13.7431 13.2268L13.3807 13.4653C13.3337 13.4962 13.2712 13.4543 13.2885 13.4037L13.4229 13.0126L13.0646 12.7689C13.0182 12.7373 13.0421 12.6696 13.0998 12.6691L13.5453 12.666L13.6862 12.2769C13.7044 12.2265 13.7818 12.2265 13.8 12.2769Z" fill="#F5F5F5"></path><path d="M13.8 14.3125L13.9409 14.7016L14.3864 14.7047C14.4441 14.7052 14.468 14.7729 14.4216 14.8045L14.0632 15.0482L14.1977 15.4393C14.2151 15.4899 14.1525 15.5318 14.1055 15.5009L13.7431 15.2623L13.3807 15.5009C13.3337 15.5318 13.2712 15.4899 13.2885 15.4393L13.4229 15.0482L13.0646 14.8045C13.0182 14.7729 13.0421 14.7052 13.0998 14.7047L13.5453 14.7016L13.6862 14.3125C13.7044 14.2621 13.7818 14.2621 13.8 14.3125Z" fill="#F5F5F5"></path><path d="M15.5161 7.20754L15.657 7.59668L16.1025 7.5998C16.1602 7.60027 16.1841 7.668 16.1377 7.69954L15.7793 7.94319L15.9137 8.33426C15.9312 8.38486 15.8685 8.42683 15.8216 8.39588L15.4592 8.15735L15.0968 8.39588C15.0498 8.42683 14.9873 8.38486 15.0046 8.33426L15.139 7.94319L14.7806 7.69954C14.7343 7.66794 14.7581 7.6002 14.8158 7.5998L15.2613 7.59668L15.4023 7.20754C15.4204 7.15714 15.4977 7.15714 15.5161 7.20754Z" fill="#F5F5F5"></path><path d="M15.5161 9.24317L15.657 9.63231L16.1025 9.63543C16.1602 9.63589 16.1841 9.70356 16.1377 9.73517L15.7793 9.97888L15.9137 10.3699C15.9312 10.4205 15.8685 10.4625 15.8216 10.4316L15.4592 10.193L15.0968 10.4316C15.0498 10.4625 14.9873 10.4205 15.0046 10.3699L15.139 9.97888L14.7806 9.73517C14.7343 9.70356 14.7581 9.63589 14.8158 9.63543L15.2613 9.63231L15.4023 9.24317C15.4204 9.19283 15.4977 9.19283 15.5161 9.24317Z" fill="#F5F5F5"></path><path d="M15.5161 11.2788L15.657 11.668L16.1025 11.6711C16.1602 11.6716 16.1841 11.7392 16.1377 11.7708L15.7793 12.0145L15.9137 12.4056C15.9312 12.4562 15.8685 12.4982 15.8216 12.4672L15.4592 12.2287L15.0968 12.4672C15.0498 12.4981 14.9873 12.4563 15.0046 12.4056L15.139 12.0145L14.7806 11.7708C14.7343 11.7392 14.7581 11.6716 14.8158 11.6711L15.2613 11.668L15.4023 11.2788C15.4204 11.2284 15.4977 11.2284 15.5161 11.2788Z" fill="#F5F5F5"></path><path d="M15.5161 13.3145L15.657 13.7036L16.1025 13.7067C16.1602 13.7072 16.1841 13.7749 16.1377 13.8065L15.7793 14.0502L15.9137 14.4413C15.9312 14.4919 15.8685 14.5338 15.8216 14.5029L15.4592 14.2643L15.0968 14.5029C15.0498 14.5338 14.9873 14.4919 15.0046 14.4413L15.139 14.0502L14.7806 13.8065C14.7343 13.775 14.7581 13.7072 14.8158 13.7067L15.2613 13.7036L15.4023 13.3145C15.4204 13.2641 15.4977 13.2641 15.5161 13.3145Z" fill="#F5F5F5"></path><path d="M15.5161 15.3501L15.657 15.7392L16.1025 15.7423C16.1602 15.7428 16.1841 15.8105 16.1377 15.8421L15.7793 16.0858L15.9137 16.4768C15.9312 16.5275 15.8685 16.5694 15.8216 16.5385L15.4592 16.2999L15.0968 16.5385C15.0498 16.5694 14.9873 16.5275 15.0046 16.4768L15.139 16.0858L14.7806 15.8421C14.7343 15.8105 14.7581 15.7428 14.8158 15.7423L15.2613 15.7392L15.4023 15.3501C15.4204 15.2997 15.4977 15.2997 15.5161 15.3501Z" fill="#F5F5F5"></path></g><defs><clipPath id="clip0_48_306"><rect width="36.9265" height="34" fill="white"></rect></clipPath></defs></svg>