<svg xmlns="http://www.w3.org/2000/svg" width="22" height="24" viewBox="0 0 22 24" fill="none"><path d="M11.0001 22C11.0001 22 3.66675 18.07 3.66675 10C3.66675 7.87827 4.43925 5.84345 5.81451 4.34315C7.18978 2.84286 9.05516 2 11.0001 2C12.945 2 14.8102 2.84286 16.1854 4.34315C17.5607 5.84345 18.3334 7.87827 18.3334 10C18.3334 18.07 11.0001 22 11.0001 22Z" stroke="#202020" stroke-width="2" stroke-linejoin="round"></path><path d="M11 13C12.5188 13 13.75 11.6569 13.75 10C13.75 8.34314 12.5188 7 11 7C9.48122 7 8.25 8.34314 8.25 10C8.25 11.6569 9.48122 13 11 13Z" stroke="#202020" stroke-width="2" stroke-miterlimit="10"></path></svg>