<svg xmlns="http://www.w3.org/2000/svg" width="23" height="23" viewBox="0 0 23 23" fill="none"><path fill-rule="evenodd" clip-rule="evenodd" d="M7.87168 2.8125H14.6283C15.6615 2.81249 16.4948 2.81248 17.1692 2.86849C17.8637 2.92617 18.4733 3.04805 19.0358 3.34025C19.892 3.78498 20.59 4.48304 21.0347 5.33918C21.3269 5.90169 21.4488 6.51126 21.5065 7.20578C21.5625 7.88022 21.5625 8.71354 21.5625 9.74671V12.7533C21.5625 13.7865 21.5625 14.6198 21.5065 15.2942C21.4488 15.9887 21.3269 16.5983 21.0347 17.1608C20.59 18.017 19.892 18.715 19.0358 19.1597C18.4733 19.4519 17.8637 19.5738 17.1692 19.6315C16.4948 19.6875 15.6615 19.6875 14.6283 19.6875H7.87171C6.83854 19.6875 6.00522 19.6875 5.33078 19.6315C4.63626 19.5738 4.02669 19.4519 3.46418 19.1597C2.60804 18.715 1.90998 18.017 1.46525 17.1608C1.17305 16.5983 1.05117 15.9887 0.993492 15.2942C0.937483 14.6198 0.937491 13.7865 0.9375 12.7533V9.74668C0.937491 8.71352 0.937483 7.88021 0.993492 7.20578C1.05117 6.51126 1.17305 5.90169 1.46525 5.33918C1.90998 4.48304 2.60804 3.78498 3.46418 3.34025C4.02669 3.04805 4.63626 2.92617 5.33078 2.86849C6.00521 2.81248 6.83852 2.81249 7.87168 2.8125ZM4.92444 4.80985C5.72004 4.99651 6.45861 5.39213 7.05954 5.96444L9.81466 8.58836C10.1957 8.95123 10.4414 9.18422 10.6428 9.34704C10.8351 9.50257 10.9257 9.5419 10.9758 9.55723C11.1545 9.61188 11.3455 9.61188 11.5242 9.55723C11.5743 9.5419 11.6649 9.50257 11.8572 9.34704C12.0586 9.18422 12.3043 8.95123 12.6853 8.58836L15.4405 5.96444C16.0414 5.39212 16.78 4.99651 17.5756 4.80985C17.418 4.77959 17.2339 4.75532 17.014 4.73706C16.4264 4.68825 15.671 4.6875 14.5875 4.6875H7.9125C6.82897 4.6875 6.07365 4.68825 5.48595 4.73706C5.26609 4.75532 5.08198 4.77959 4.92444 4.80985ZM19.5099 6.5625H18.6328C17.9257 6.5625 17.2456 6.83452 16.7336 7.3222L13.9526 9.97074C13.6048 10.302 13.3039 10.5886 13.036 10.8052C12.7525 11.0343 12.4462 11.236 12.0725 11.3502C11.5364 11.5142 10.9636 11.5142 10.4275 11.3502C10.0538 11.236 9.74747 11.0343 9.46399 10.8052C9.19614 10.5886 8.89522 10.302 8.54738 9.97072L5.76643 7.3222C5.25437 6.83452 4.57433 6.5625 3.86719 6.5625H2.99008C2.93305 6.7656 2.89034 7.02039 2.86206 7.36095C2.81325 7.94865 2.8125 8.70397 2.8125 9.7875V12.7125C2.8125 13.796 2.81325 14.5514 2.86206 15.139C2.90993 15.7155 2.99915 16.0462 3.12915 16.2965C3.39599 16.8102 3.81483 17.229 4.32851 17.4959C4.57877 17.6259 4.90948 17.7151 5.48595 17.7629C6.07365 17.8117 6.82897 17.8125 7.9125 17.8125H14.5875C15.671 17.8125 16.4264 17.8117 17.014 17.7629C17.5905 17.7151 17.9212 17.6259 18.1715 17.4959C18.6852 17.229 19.104 16.8102 19.3709 16.2965C19.5009 16.0462 19.5901 15.7155 19.6379 15.139C19.6867 14.5514 19.6875 13.796 19.6875 12.7125V9.7875C19.6875 8.70397 19.6867 7.94865 19.6379 7.36095C19.6097 7.02039 19.5669 6.7656 19.5099 6.5625Z" fill="#202020"></path></svg>