<svg xmlns="http://www.w3.org/2000/svg" width="25" height="25" viewBox="0 0 25 25" fill="none"><path fill-rule="evenodd" clip-rule="evenodd" d="M7.13094 19.3963C7.02897 18.7575 6.73624 18.1793 6.31058 17.7175C4.35748 16.1903 3.12499 13.9523 3.12499 11.4583C3.12499 6.85595 7.32232 3.12499 12.5 3.12499C17.6777 3.12499 21.875 6.85595 21.875 11.4583C21.875 16.0607 17.6777 19.7917 12.5 19.7917C11.6194 19.7917 10.7671 19.6837 9.95909 19.482C9.84779 19.4542 9.73111 19.5 9.66796 19.5958C9.54018 19.7896 9.39928 19.9845 9.24706 20.1744C9.00764 20.4731 8.74025 20.7593 8.45199 21.0088C7.9119 21.4765 7.29855 21.8157 6.65866 21.868C6.63714 21.8697 6.61558 21.8711 6.594 21.8723C6.55068 21.8745 6.52601 21.8249 6.55159 21.7898C6.56363 21.7733 6.57551 21.7567 6.58724 21.74C6.95564 21.215 7.17079 20.5819 7.17079 19.9004C7.17079 19.887 7.17071 19.8736 7.17054 19.8602C7.16858 19.7027 7.15513 19.5478 7.13094 19.3963ZM4.85648 19.2224C2.55846 17.3519 1.04166 14.5941 1.04166 11.4583C1.04166 5.48146 6.40919 1.04166 12.5 1.04166C18.5908 1.04166 23.9583 5.48146 23.9583 11.4583C23.9583 17.4352 18.5908 21.875 12.5 21.875C11.8727 21.875 11.2559 21.8291 10.6538 21.7405C10.3501 22.092 10.0079 22.4337 9.6304 22.7389C8.91167 23.3201 7.91129 23.8909 6.70042 23.9529L6.70039 23.9529C4.74099 24.0531 3.90799 21.8781 4.86876 20.5617C5.01075 20.3671 5.08746 20.142 5.08746 19.9004C5.08746 19.6546 5.0074 19.4217 4.85648 19.2224Z" fill="#565656"></path></svg>