<svg xmlns="http://www.w3.org/2000/svg" width="30" height="30" viewBox="0 0 30 30" fill="none"><g clip-path="url(#clip0_34_103)"><path d="M28.2126 13.4176L23.5115 8.25406C22.6103 7.35034 21.0454 7.34408 20.1279 8.26156C19.8317 8.5578 19.6292 8.91403 19.5242 9.294C18.6118 8.594 17.2193 8.67029 16.3781 9.51149C16.0819 9.80772 15.8794 10.164 15.7719 10.5427C14.8619 9.8427 13.4682 9.92274 12.6283 10.7614C12.337 11.0527 12.137 11.4014 12.0283 11.7701L9.81335 9.5552C8.88215 8.62523 7.36968 8.62271 6.42847 9.5627C5.49727 10.4927 5.49727 12.0076 6.42847 12.9388L14.9381 21.4484L9.89332 22.2409C8.52838 22.436 7.49969 23.6209 7.49969 24.9996C7.49969 26.0333 8.34089 26.8745 9.37461 26.8745H21.1604C22.9953 26.8745 24.7215 26.1595 26.0239 24.8596L27.9889 22.8935C29.2863 21.5972 30 19.8723 30 18.0386C30 16.3262 29.365 14.685 28.2126 13.4176ZM27.1039 22.011L25.139 23.9771C24.0752 25.0395 22.6616 25.6245 21.1604 25.6245H9.37461C9.03086 25.6245 8.74962 25.3445 8.74962 24.9995C8.74962 24.2395 9.31708 23.5858 10.0771 23.4759L16.3456 22.4909C16.5781 22.4546 16.7693 22.2909 16.8431 22.0671C16.9156 21.8447 16.8568 21.5984 16.6906 21.4322L7.3122 12.0539C6.86972 11.6102 6.86972 10.8889 7.3197 10.4377C7.54217 10.2165 7.83343 10.1052 8.12469 10.1052C8.41594 10.1052 8.70714 10.2165 8.92967 10.4389L12.5995 14.1088C12.6082 14.1188 12.6195 14.1288 12.6295 14.1388L15.1844 16.6924C15.4281 16.9362 15.8243 16.9362 16.0681 16.6924C16.3118 16.4487 16.3118 16.0524 16.0681 15.8087L13.4919 13.2326C13.0707 12.7876 13.0782 12.0814 13.5207 11.6376C13.9507 11.2102 14.6982 11.2076 15.1282 11.6376L16.3569 12.8676C16.3644 12.8751 16.3707 12.8826 16.3782 12.8889L17.6831 14.1926C17.9268 14.4363 18.3231 14.4363 18.5668 14.1926C18.8106 13.9488 18.8106 13.5526 18.5668 13.3089L17.2469 11.9901C16.8206 11.5451 16.8257 10.834 17.2706 10.3877C17.6993 9.96024 18.4481 9.95772 18.8781 10.3877L20.183 11.6976C20.1842 11.6989 20.1842 11.7002 20.1855 11.7002L20.1868 11.7014C20.1969 11.7065 20.1944 11.7052 20.1917 11.7039C20.1917 11.7039 20.1917 11.7051 20.193 11.7051C20.1942 11.7064 20.1942 11.7064 20.1942 11.7064C20.1954 11.7076 20.1954 11.7076 20.1954 11.7076H20.1967C20.1979 11.7076 20.1979 11.7076 20.1979 11.7076C20.4454 11.9376 20.8304 11.9314 21.0679 11.6914C21.3104 11.4476 21.3104 11.0527 21.0666 10.8089L20.9916 10.7339C20.5691 10.2889 20.5754 9.5815 21.0191 9.13773C21.4491 8.71025 22.2166 8.729 22.6065 9.11646L27.2863 14.26C28.2301 15.2975 28.7488 16.6387 28.7488 18.0399C28.7488 19.5386 28.1639 20.9497 27.1039 22.011Z" fill="#565656"></path><path d="M20.1904 11.7039H20.1916C20.1903 11.7033 20.1891 11.7027 20.1891 11.7027C20.1904 11.7039 20.1917 11.7039 20.1904 11.7039Z" fill="#565656"></path><path d="M13.2457 8.94275C12.3345 6.92785 10.3258 5.62537 8.12462 5.62537C5.02349 5.62537 2.49985 8.14901 2.49985 11.2501C2.49985 13.4501 3.80227 15.46 5.81594 16.3712C5.89967 16.4087 5.9872 16.4262 6.07345 16.4262C6.31221 16.4262 6.53843 16.2887 6.64343 16.0587C6.78469 15.7437 6.64595 15.3737 6.33096 15.2312C4.76352 14.5225 3.74984 12.9601 3.74984 11.2502C3.74984 8.83781 5.71224 6.87535 8.12468 6.87535C9.83461 6.87535 11.3971 7.88904 12.1058 9.45648C12.2483 9.77147 12.617 9.91144 12.9333 9.76895C13.247 9.62774 13.3869 9.25651 13.2457 8.94275Z" fill="#565656"></path><path d="M15.9681 9.16151C15.0244 5.60789 11.7982 3.12549 8.12469 3.12549C3.64485 3.12549 0 6.77034 0 11.2502C0 14.9238 2.4824 18.1499 6.03725 19.0936C6.09098 19.1086 6.14477 19.1149 6.19727 19.1149C6.47475 19.1149 6.72722 18.9311 6.80099 18.6511C6.88976 18.3174 6.69225 17.9749 6.35728 17.8862C3.35113 17.0875 1.24999 14.3588 1.24999 11.2502C1.24999 7.45908 4.33488 4.37548 8.12469 4.37548C11.2321 4.37548 13.962 6.47539 14.7607 9.48277C14.8482 9.81527 15.1794 10.0152 15.5257 9.92648C15.8581 9.83771 16.0556 9.49525 15.9681 9.16151Z" fill="#565656"></path></g><defs><clipPath id="clip0_34_103"><rect width="30" height="30" fill="white"></rect></clipPath></defs></svg>