<svg xmlns="http://www.w3.org/2000/svg" width="28" height="23" viewBox="0 0 28 23" fill="none"><path fill-rule="evenodd" clip-rule="evenodd" d="M9.32065 0.6875H18.1794C19.5339 0.687488 20.6265 0.687477 21.5108 0.760911C22.4213 0.836531 23.2206 0.996335 23.9581 1.37944C25.0806 1.96253 25.9958 2.87777 26.5789 4.00026C26.962 4.73777 27.1218 5.53699 27.1974 6.44757C27.2709 7.33184 27.2708 8.42441 27.2708 9.77902V13.721C27.2708 15.0756 27.2709 16.1682 27.1974 17.0524C27.1218 17.963 26.962 18.7622 26.5789 19.4997C25.9958 20.6222 25.0806 21.5375 23.9581 22.1206C23.2206 22.5037 22.4213 22.6635 21.5108 22.7391C20.6265 22.8125 19.5339 22.8125 18.1793 22.8125H9.32069C7.96609 22.8125 6.87351 22.8125 5.98925 22.7391C5.07866 22.6635 4.27944 22.5037 3.54193 22.1206C2.41944 21.5375 1.5042 20.6222 0.921111 19.4997C0.538007 18.7622 0.378203 17.963 0.302583 17.0524C0.229149 16.1682 0.229159 15.0756 0.229172 13.721V9.77898C0.229159 8.42439 0.229149 7.33183 0.302583 6.44757C0.378203 5.53699 0.538007 4.73777 0.921111 4.00026C1.5042 2.87777 2.41944 1.96253 3.54193 1.37944C4.27944 0.996335 5.07866 0.836531 5.98925 0.760911C6.8735 0.687477 7.96607 0.687488 9.32065 0.6875ZM5.4565 3.30624C6.49962 3.55099 7.46796 4.06968 8.25584 4.82004L11.8681 8.2603C12.3677 8.73606 12.6898 9.04153 12.9538 9.25501C13.2061 9.45892 13.3248 9.51049 13.3905 9.53059C13.6248 9.60224 13.8752 9.60224 14.1095 9.53059C14.1752 9.51049 14.2939 9.45892 14.5462 9.25501C14.8102 9.04153 15.1324 8.73606 15.6319 8.2603L19.2442 4.82004C20.0321 4.06967 21.0004 3.55099 22.0435 3.30624C21.837 3.26657 21.5956 3.23475 21.3073 3.21081C20.5368 3.14682 19.5465 3.14583 18.1258 3.14583H9.37417C7.95354 3.14583 6.96323 3.14682 6.1927 3.21081C5.90444 3.23475 5.66304 3.26657 5.4565 3.30624ZM24.5797 5.60417H23.4297C22.5026 5.60417 21.6109 5.96081 20.9396 6.60022L17.2934 10.0727C16.8374 10.5071 16.4428 10.8829 16.0917 11.1668C15.72 11.4672 15.3184 11.7316 14.8284 11.8814C14.1256 12.0964 13.3745 12.0964 12.6716 11.8814C12.1816 11.7316 11.78 11.4672 11.4083 11.1668C11.0572 10.8829 10.6626 10.5071 10.2066 10.0727L6.56044 6.60022C5.88907 5.96081 4.99746 5.60417 4.07032 5.60417H2.92033C2.84556 5.87045 2.78956 6.20451 2.75248 6.65103C2.68849 7.42156 2.68751 8.41187 2.68751 9.8325V13.6675C2.68751 15.0881 2.68849 16.0784 2.75248 16.849C2.81525 17.6048 2.93222 18.0384 3.10267 18.3665C3.45252 19.04 4.00167 19.5892 4.67516 19.939C5.00329 20.1095 5.43688 20.2264 6.1927 20.2892C6.96323 20.3532 7.95354 20.3542 9.37417 20.3542H18.1258C19.5465 20.3542 20.5368 20.3532 21.3073 20.2892C22.0631 20.2264 22.4967 20.1095 22.8248 19.939C23.4983 19.5892 24.0475 19.04 24.3973 18.3665C24.5678 18.0384 24.6848 17.6048 24.7475 16.849C24.8115 16.0784 24.8125 15.0881 24.8125 13.6675V9.8325C24.8125 8.41187 24.8115 7.42156 24.7475 6.65103C24.7104 6.20451 24.6544 5.87045 24.5797 5.60417Z" fill="#565656"></path></svg>